<svg width="165" height="16" viewBox="0 0 165 16" fill="none" xmlns="http://www.w3.org/2000/svg">
<g clip-path="url(#clip0_317_11844)">
<path d="M50.7196 15.9979C50.4484 15.9986 50.1779 15.9711 49.9124 15.9158C49.3407 15.7977 48.8001 15.5611 48.3254 15.2213C47.8507 14.8815 47.4524 14.4461 47.1562 13.9431L47.1411 13.915C46.9941 13.6365 46.9584 13.3126 47.0414 13.0088C47.1244 12.705 47.3197 12.4441 47.5878 12.279C47.7736 12.1673 47.9862 12.1083 48.203 12.1085C48.4189 12.1088 48.6308 12.1665 48.817 12.2758C49.0033 12.385 49.1571 12.5418 49.2627 12.7301L49.3037 12.7992L49.4332 12.974L49.6059 13.1488C49.8305 13.3431 50.1021 13.4748 50.3937 13.5308C50.6295 13.5765 50.8723 13.5724 51.1064 13.5189C51.3405 13.4653 51.5609 13.3636 51.7535 13.22C51.9524 13.0785 52.1174 12.8945 52.2365 12.6813C52.3556 12.4682 52.4258 12.2312 52.442 11.9876C52.462 11.7465 52.4301 11.5038 52.3486 11.276C52.2671 11.0482 52.1378 10.8404 51.9693 10.6667C51.9693 10.6667 47.9893 6.56578 47.903 6.45139L47.7066 6.16001C47.2409 5.43322 47.0305 4.57204 47.1087 3.71242C47.1513 3.11677 47.3276 2.53838 47.6245 2.02025L47.7972 1.71808C48.1113 1.2688 48.5221 0.895613 48.9994 0.625947L49.1958 0.485653C50.114 -0.0190379 51.1935 -0.143502 52.2024 0.138995C53.2113 0.421493 54.0692 1.08842 54.5917 1.99651C54.6732 2.13356 54.7262 2.28558 54.7477 2.44353C54.7692 2.60149 54.7588 2.76215 54.7169 2.91598C54.6755 3.07259 54.6032 3.21933 54.5042 3.34758C54.4052 3.47583 54.2816 3.58299 54.1406 3.66277C53.961 3.76932 53.7559 3.82525 53.5471 3.82465C53.3324 3.82406 53.1217 3.76639 52.9366 3.65754C52.7515 3.54868 52.5987 3.39257 52.4938 3.2052C52.3799 3.01143 52.2262 2.84407 52.0427 2.71421C51.8593 2.58434 51.6503 2.49494 51.4297 2.45193C51.2055 2.40825 50.9746 2.4116 50.7517 2.46175C50.5287 2.51191 50.3187 2.60778 50.1347 2.74331C49.958 2.88106 49.8126 3.05493 49.7084 3.25331C49.6042 3.45169 49.5435 3.67002 49.5304 3.89372C49.5117 4.11827 49.5405 4.34425 49.6148 4.55695C49.6892 4.76966 49.8075 4.96433 49.962 5.12831L53.7025 8.98532C54.2667 9.57069 54.646 10.3092 54.7932 11.1088C54.9403 11.9084 54.8488 12.7336 54.53 13.4815C54.2112 14.2294 53.6792 14.8668 53.0004 15.3143C52.3217 15.7618 51.5262 15.9996 50.7132 15.9979H50.7196Z" fill="#003D8F"/>
<path d="M38.8873 15.9957C37.8212 15.9945 36.7991 15.5705 36.0452 14.8167C35.2914 14.0628 34.8674 13.0407 34.8662 11.9746V4.02104C34.8662 3.49299 34.9702 2.97011 35.1723 2.48226C35.3744 1.9944 35.6706 1.55113 36.0439 1.17774C36.4173 0.804348 36.8606 0.50816 37.3485 0.306084C37.8363 0.104007 38.3592 0 38.8873 0C39.4153 0 39.9382 0.104007 40.426 0.306084C40.9139 0.50816 41.3572 0.804348 41.7306 1.17774C42.104 1.55113 42.4001 1.9944 42.6022 2.48226C42.8043 2.97011 42.9083 3.49299 42.9083 4.02104V11.9746C42.9072 13.0407 42.4831 14.0628 41.7293 14.8167C40.9755 15.5705 39.9534 15.9945 38.8873 15.9957ZM38.8873 2.42817C38.465 2.42874 38.0602 2.59674 37.7616 2.89534C37.463 3.19394 37.2949 3.59876 37.2944 4.02104V11.9746C37.2921 12.1845 37.3317 12.3926 37.4109 12.5869C37.4901 12.7812 37.6074 12.9578 37.7558 13.1061C37.9041 13.2545 38.0807 13.3717 38.275 13.451C38.4693 13.5302 38.6774 13.5698 38.8873 13.5675C39.3095 13.5669 39.7144 13.3989 40.013 13.1003C40.3116 12.8017 40.4796 12.3969 40.4801 11.9746V4.02104C40.4745 3.60033 40.3049 3.19841 40.0074 2.90089C39.7099 2.60337 39.308 2.43375 38.8873 2.42817Z" fill="#003D8F"/>
<path d="M23.2693 8.20399V14.7935C23.2693 15.1152 23.1415 15.4237 22.914 15.6512C22.6865 15.8787 22.378 16.0065 22.0563 16.0065C21.7346 16.0065 21.426 15.8787 21.1985 15.6512C20.9711 15.4237 20.8433 15.1152 20.8433 14.7935V3.16635L23.2693 8.20399ZM29.8199 12.8358V1.21302C29.8067 0.899885 29.673 0.603959 29.4468 0.387059C29.2206 0.170159 28.9193 0.0490618 28.6058 0.0490618C28.2924 0.0490618 27.9911 0.170159 27.7649 0.387059C27.5387 0.603959 27.405 0.899885 27.3918 1.21302V7.79605L29.8199 12.8358ZM23.1549 0.688539V0.664797C23.0455 0.469229 22.8862 0.306222 22.6931 0.192451C22.5001 0.0786805 22.2803 0.0182305 22.0563 0.0172855C21.9743 0.0168958 21.8925 0.0255821 21.8124 0.0431859C21.5395 0.0963197 21.294 0.243685 21.1189 0.459508C20.9437 0.675331 20.8499 0.945873 20.8541 1.22381V1.50224L27.5148 15.3309C27.6192 15.5277 27.7743 15.6931 27.964 15.81C28.1537 15.9269 28.3712 15.991 28.594 15.9957C28.6879 15.9959 28.7814 15.9843 28.8724 15.9612C29.1405 15.9051 29.3811 15.7584 29.5537 15.5457C29.7262 15.333 29.8203 15.0674 29.8199 14.7935V14.5194C29.8199 14.5194 23.334 1.05762 23.1549 0.688539Z" fill="#003D8F"/>
<path d="M11.7415 15.9957C10.6752 15.9951 9.6528 15.5713 8.89883 14.8173C8.14486 14.0633 7.72103 13.0409 7.72046 11.9746V4.02104C7.72046 2.9546 8.1441 1.93183 8.8982 1.17774C9.65229 0.423645 10.6751 0 11.7415 0C12.808 0 13.8307 0.423645 14.5848 1.17774C15.3389 1.93183 15.7625 2.9546 15.7625 4.02104V11.9746C15.762 13.0409 15.3381 14.0633 14.5842 14.8173C13.8302 15.5713 12.8078 15.9951 11.7415 15.9957ZM11.7415 2.42817C11.5322 2.42788 11.325 2.46889 11.1316 2.54884C10.9382 2.62879 10.7625 2.74611 10.6145 2.89408C10.4666 3.04204 10.3492 3.21776 10.2693 3.41114C10.1893 3.60453 10.1483 3.81178 10.1486 4.02104V11.9746C10.1486 12.3971 10.3164 12.8023 10.6152 13.101C10.9139 13.3997 11.319 13.5675 11.7415 13.5675C12.164 13.5675 12.5691 13.3997 12.8678 13.101C13.1666 12.8023 13.3344 12.3971 13.3344 11.9746V4.02104C13.3288 3.60032 13.1592 3.19841 12.8617 2.90089C12.5641 2.60337 12.1622 2.43375 11.7415 2.42817Z" fill="#003D8F"/>
<path d="M1.3187 15.9892C1.14399 15.9901 0.970864 15.9561 0.809474 15.8892C0.648084 15.8223 0.501679 15.7238 0.378846 15.5996C0.256013 15.4753 0.159225 15.3278 0.094159 15.1657C0.0290926 15.0035 -0.0029421 14.83 -6.634e-05 14.6553V1.30151C0.00617628 0.954382 0.149053 0.623719 0.39756 0.381273C0.646067 0.138827 0.980156 0.00415736 1.32733 0.00648637C1.61805 0.00223228 1.90175 0.0959356 2.13275 0.27251C2.36374 0.449085 2.5286 0.698258 2.60077 0.979912C2.60967 1.01043 2.61687 1.04141 2.62235 1.07272V1.131C2.63471 1.20226 2.64049 1.27451 2.63962 1.34683C2.63962 1.34683 2.63962 14.5129 2.63962 14.664C2.64076 14.838 2.60741 15.0105 2.54148 15.1715C2.47556 15.3325 2.37837 15.4789 2.25554 15.6021C2.13271 15.7253 1.98667 15.823 1.82587 15.8894C1.66507 15.9559 1.49269 15.9898 1.3187 15.9892Z" fill="#003D8F"/>
</g>
<path d="M164.876 13.1261H158.984V2.89502H164.876V4.67251H161.154V6.91887H164.618V8.69636H161.154V11.3346H164.876V13.1261Z" fill="#003D8F"/>
<path d="M152.483 7.38072H156.542V12.6852C156.005 12.8625 155.448 13.0048 154.869 13.1121C154.291 13.2147 153.635 13.266 152.903 13.266C151.886 13.266 151.023 13.0654 150.313 12.6642C149.604 12.263 149.065 11.6705 148.697 10.8867C148.328 10.1029 148.144 9.13955 148.144 7.99654C148.144 6.92352 148.349 5.99512 148.76 5.21134C149.175 4.42757 149.779 3.82107 150.572 3.39186C151.37 2.96265 152.343 2.74805 153.491 2.74805C154.032 2.74805 154.566 2.80636 155.093 2.923C155.62 3.03963 156.098 3.19125 156.528 3.37787L155.807 5.11337C155.494 4.95475 155.137 4.82179 154.736 4.71448C154.335 4.60718 153.915 4.55353 153.477 4.55353C152.847 4.55353 152.299 4.69815 151.832 4.9874C151.37 5.27666 151.011 5.68254 150.754 6.20506C150.502 6.72291 150.376 7.33407 150.376 8.03853C150.376 8.70567 150.467 9.29817 150.649 9.81602C150.831 10.3292 151.118 10.7328 151.51 11.0267C151.902 11.3159 152.413 11.4606 153.043 11.4606C153.351 11.4606 153.609 11.4466 153.819 11.4186C154.034 11.3859 154.235 11.3532 154.421 11.3206V9.1862H152.483V7.38072Z" fill="#003D8F"/>
<path d="M144.967 13.126L144.225 10.6907H140.495L139.754 13.126H137.416L141.027 2.85297H143.679L147.304 13.126H144.967ZM143.707 8.87124L142.966 6.49192C142.919 6.3333 142.856 6.13036 142.777 5.8831C142.702 5.63117 142.625 5.37691 142.546 5.12032C142.471 4.85906 142.41 4.63279 142.364 4.44151C142.317 4.63279 142.252 4.87072 142.168 5.15531C142.089 5.43523 142.012 5.70115 141.937 5.95308C141.862 6.20501 141.809 6.38462 141.776 6.49192L141.041 8.87124H143.707Z" fill="#003D8F"/>
<path d="M132.224 2.89502C133.152 2.89502 133.917 3.00699 134.519 3.23092C135.126 3.45486 135.576 3.7931 135.87 4.24563C136.164 4.69817 136.311 5.26967 136.311 5.96014C136.311 6.42667 136.222 6.83489 136.045 7.18479C135.867 7.53469 135.634 7.83094 135.345 8.07354C135.056 8.31613 134.743 8.51441 134.407 8.66837L137.416 13.1261H135.009L132.567 9.20021H131.412V13.1261H129.243V2.89502H132.224ZM132.07 4.67251H131.412V7.43672H132.112C132.83 7.43672 133.344 7.31775 133.651 7.07982C133.964 6.83722 134.12 6.48266 134.12 6.01613C134.12 5.53093 133.952 5.1857 133.616 4.98042C133.285 4.77515 132.77 4.67251 132.07 4.67251Z" fill="#003D8F"/>
<path d="M127.122 7.9965C127.122 8.78494 127.024 9.5034 126.828 10.1519C126.632 10.7957 126.334 11.3509 125.932 11.8174C125.536 12.2839 125.032 12.6432 124.421 12.8951C123.81 13.1424 123.087 13.266 122.251 13.266C121.416 13.266 120.693 13.1424 120.082 12.8951C119.471 12.6432 118.965 12.2839 118.564 11.8174C118.167 11.3509 117.871 10.7934 117.675 10.1449C117.479 9.4964 117.381 8.77561 117.381 7.9825C117.381 6.92347 117.553 6.00207 117.899 5.2183C118.249 4.42986 118.785 3.8187 119.508 3.38482C120.231 2.95095 121.15 2.73401 122.265 2.73401C123.376 2.73401 124.288 2.95095 125.002 3.38482C125.72 3.8187 126.252 4.42986 126.597 5.2183C126.947 6.00674 127.122 6.93281 127.122 7.9965ZM119.655 7.9965C119.655 8.7103 119.744 9.32612 119.921 9.84397C120.103 10.3572 120.385 10.7537 120.768 11.0336C121.15 11.3089 121.645 11.4465 122.251 11.4465C122.867 11.4465 123.366 11.3089 123.749 11.0336C124.132 10.7537 124.409 10.3572 124.582 9.84397C124.759 9.32612 124.848 8.7103 124.848 7.9965C124.848 6.92347 124.647 6.07905 124.246 5.46323C123.845 4.8474 123.185 4.53949 122.265 4.53949C121.654 4.53949 121.155 4.67945 120.768 4.95937C120.385 5.23463 120.103 5.63118 119.921 6.14903C119.744 6.66222 119.655 7.27804 119.655 7.9965Z" fill="#003D8F"/>
<path d="M113.483 13.1261H111.314V4.7005H108.536V2.89502H116.261V4.7005H113.483V13.1261Z" fill="#003D8F"/>
<path d="M107.682 10.2849C107.682 10.8914 107.535 11.4186 107.241 11.8664C106.947 12.3143 106.518 12.6595 105.953 12.9021C105.393 13.1447 104.712 13.266 103.91 13.266C103.555 13.266 103.207 13.2427 102.867 13.1961C102.531 13.1494 102.207 13.0818 101.894 12.9931C101.586 12.8998 101.292 12.7855 101.012 12.6502V10.6348C101.498 10.8494 102.001 11.043 102.524 11.2156C103.047 11.3882 103.564 11.4745 104.078 11.4745C104.432 11.4745 104.717 11.4279 104.931 11.3346C105.151 11.2413 105.309 11.113 105.407 10.9497C105.505 10.7864 105.554 10.5998 105.554 10.3899C105.554 10.1333 105.468 9.91399 105.295 9.73205C105.123 9.5501 104.885 9.37981 104.581 9.22119C104.283 9.06257 103.945 8.89229 103.567 8.71034C103.329 8.59837 103.07 8.46308 102.79 8.30446C102.51 8.14117 102.244 7.94289 101.992 7.70962C101.74 7.47636 101.533 7.19411 101.369 6.86287C101.211 6.52696 101.131 6.12575 101.131 5.65921C101.131 5.04805 101.271 4.52554 101.551 4.09166C101.831 3.65779 102.23 3.32655 102.748 3.09795C103.27 2.86468 103.886 2.74805 104.595 2.74805C105.127 2.74805 105.633 2.81103 106.114 2.93699C106.599 3.05829 107.105 3.23557 107.633 3.46884L106.933 5.15536C106.462 4.96408 106.039 4.81712 105.666 4.71448C105.293 4.60718 104.913 4.55353 104.525 4.55353C104.255 4.55353 104.024 4.59785 103.833 4.68649C103.641 4.77047 103.497 4.89177 103.399 5.05039C103.301 5.20434 103.252 5.38396 103.252 5.58923C103.252 5.83183 103.322 6.0371 103.462 6.20506C103.606 6.36834 103.821 6.52696 104.106 6.68092C104.395 6.83488 104.754 7.01449 105.183 7.21977C105.706 7.46703 106.151 7.72595 106.52 7.99654C106.893 8.26247 107.18 8.57738 107.381 8.94127C107.581 9.3005 107.682 9.74837 107.682 10.2849Z" fill="#003D8F"/>
<path d="M95.8828 7.10781L98.0172 2.89502H100.355L96.9605 9.14423V13.1261H94.8052V9.21421L91.4111 2.89502H93.7625L95.8828 7.10781Z" fill="#003D8F"/>
<path d="M90.8449 10.2849C90.8449 10.8914 90.6979 11.4186 90.404 11.8664C90.1101 12.3143 89.6809 12.6595 89.1164 12.9021C88.5565 13.1447 87.8754 13.266 87.073 13.266C86.7184 13.266 86.3708 13.2427 86.0302 13.1961C85.6943 13.1494 85.3701 13.0818 85.0575 12.9931C84.7496 12.8998 84.4557 12.7855 84.1758 12.6502V10.6348C84.661 10.8494 85.1648 11.043 85.6873 11.2156C86.2099 11.3882 86.7277 11.4745 87.2409 11.4745C87.5955 11.4745 87.8801 11.4279 88.0947 11.3346C88.3139 11.2413 88.4725 11.113 88.5705 10.9497C88.6685 10.7864 88.7175 10.5998 88.7175 10.3899C88.7175 10.1333 88.6312 9.91399 88.4586 9.73205C88.2859 9.5501 88.048 9.37981 87.7448 9.22119C87.4462 9.06257 87.1079 8.89229 86.73 8.71034C86.4921 8.59837 86.2332 8.46308 85.9533 8.30446C85.6734 8.14117 85.4074 7.94289 85.1555 7.70962C84.9036 7.47636 84.696 7.19411 84.5327 6.86287C84.3741 6.52696 84.2947 6.12575 84.2947 5.65921C84.2947 5.04805 84.4347 4.52554 84.7146 4.09166C84.9945 3.65779 85.3934 3.32655 85.9113 3.09795C86.4338 2.86468 87.0496 2.74805 87.7588 2.74805C88.2906 2.74805 88.7968 2.81103 89.2773 2.93699C89.7625 3.05829 90.2687 3.23557 90.7959 3.46884L90.0961 5.15536C89.6249 4.96408 89.2027 4.81712 88.8294 4.71448C88.4562 4.60718 88.076 4.55353 87.6888 4.55353C87.4182 4.55353 87.1873 4.59785 86.996 4.68649C86.8047 4.77047 86.6601 4.89177 86.5621 5.05039C86.4641 5.20434 86.4151 5.38396 86.4151 5.58923C86.4151 5.83183 86.4851 6.0371 86.6251 6.20506C86.7697 6.36834 86.9843 6.52696 87.2689 6.68092C87.5581 6.83488 87.9174 7.01449 88.3466 7.21977C88.8691 7.46703 89.3146 7.72595 89.6832 7.99654C90.0564 8.26247 90.3433 8.57738 90.544 8.94127C90.7446 9.3005 90.8449 9.74837 90.8449 10.2849Z" fill="#003D8F"/>
<path d="M81.1731 13.126L80.4314 10.6907H76.7014L75.9596 13.126H73.6223L77.2333 2.85297H79.8855L83.5105 13.126H81.1731ZM79.9135 8.87124L79.1717 6.49192C79.1251 6.3333 79.0621 6.13036 78.9828 5.8831C78.9081 5.63117 78.8312 5.37691 78.7518 5.12032C78.6772 4.85906 78.6165 4.63279 78.5699 4.44151C78.5232 4.63279 78.4579 4.87072 78.374 5.15531C78.2946 5.43523 78.2177 5.70115 78.143 5.95308C78.0684 6.20501 78.0147 6.38462 77.9821 6.49192L77.2473 8.87124H79.9135Z" fill="#003D8F"/>
<path d="M72.7688 13.1261H66.8765V2.89502H72.7688V4.67251H69.0458V6.91887H72.5099V8.69636H69.0458V11.3346H72.7688V13.1261Z" fill="#003D8F"/>
<defs>
<clipPath id="clip0_317_11844">
<rect width="54.8766" height="16" fill="white"/>
</clipPath>
</defs>
</svg>
