<svg width="25" height="26" viewBox="0 0 25 26" fill="none" xmlns="http://www.w3.org/2000/svg">
<g clip-path="url(#clip0_1348_182)">
<path d="M12.3528 0C5.53296 0 -0.00012703 5.8689 -0.00012703 13.141C-0.0334333 14.5174 0.140215 15.8908 0.514579 17.2119C0.658967 16.9505 0.874977 16.7395 1.13522 16.6056C1.39546 16.4716 1.68821 16.4208 1.97634 16.4596H12.2447L12.2705 16.3849C12.3631 16.1235 12.5947 15.7873 12.6719 15.5259C12.7114 15.4182 12.7118 15.2993 12.673 15.1913C12.6342 15.0833 12.5588 14.9936 12.4609 14.939C12.3322 14.8963 12.1933 14.9977 12.0697 14.9764C11.8794 14.9245 11.7033 14.8277 11.555 14.6936C11.3594 14.5335 11.2874 14.2774 11.0815 14.128C10.8756 13.9787 10.783 14.08 10.5977 14.0213C10.4124 13.9627 10.2888 13.7119 10.1344 13.6319C9.89767 13.5145 9.76899 13.6799 9.52193 13.6319C9.26804 13.5364 9.02474 13.4129 8.7962 13.2637C8.61383 13.1932 8.44823 13.0828 8.31058 12.9401C8.17294 12.7974 8.06648 12.6258 7.9984 12.4367C7.85803 12.1211 7.66457 11.8338 7.42708 11.5884C7.19031 11.2736 7.11826 11.0122 6.75281 10.9268C6.70649 10.9268 6.84031 11.2576 6.85576 11.2843C7.00278 11.5378 7.16435 11.7818 7.33958 12.0152C7.5712 12.3674 7.4734 12.4314 7.23664 12.0899C6.99987 11.7485 6.65502 11.3163 6.41826 10.9002C6.33076 10.7454 6.3462 10.6441 6.20208 10.4947C6.05796 10.3453 5.87781 10.2812 5.7337 10.1479C5.50786 9.9083 5.34052 9.61626 5.24562 9.29608C5.15072 8.9759 5.131 8.63684 5.18811 8.30716C5.23638 8.10303 5.25716 7.89296 5.24987 7.68293C5.21505 7.50453 5.12679 7.34209 4.99767 7.21875L4.8484 6.96799C4.74758 6.75928 4.61556 6.5684 4.45723 6.40244C4.34914 6.3064 4.07634 6.08232 3.81899 5.8689C4.97815 4.33003 6.49863 3.12499 8.23517 2.3689C8.24431 2.47597 8.27975 2.57883 8.33811 2.66768C8.47708 2.8971 8.61605 2.87576 8.89399 2.93979C8.86311 3.28125 8.48737 3.28659 8.23002 3.24924C7.97267 3.21189 7.60208 3.09451 7.33958 3.38262C7.4837 3.47332 7.88517 3.84146 7.85429 3.45732C8.14033 3.43325 8.42779 3.43325 8.71384 3.45732C8.83223 3.45732 9.22855 3.61204 9.3212 3.54802C9.41384 3.48399 9.4087 3.29192 9.45502 3.22256C9.36463 3.20934 9.27351 3.20221 9.18223 3.20122C9.37267 2.93979 9.56311 3.14253 9.80502 3.25991C9.53737 3.43598 9.69693 3.8468 9.95428 3.51067C10.2116 3.17454 9.90281 3.03582 9.63002 2.87576C9.90796 2.51296 10.0727 2.48094 10.33 2.87576C10.3712 2.61966 10.5668 2.72104 10.7675 2.74238V2.66768C10.6774 2.64825 10.5863 2.634 10.4947 2.625C10.7006 2.2782 10.5719 2.19817 10.8653 2.09146C11.1587 1.98476 11.7609 2.09146 11.8433 1.85137C11.348 1.89726 10.8613 2.01396 10.3969 2.19817C10.2168 2.29421 10.0006 2.59832 9.82046 2.40091C9.64031 2.20351 9.95428 1.86738 10.1138 1.76601H10.0778C10.8251 1.59627 11.5878 1.51041 12.3528 1.50991C12.8504 1.51018 13.3474 1.54583 13.8403 1.61662C13.6705 1.71265 13.7991 1.77668 13.6756 1.87271C13.3825 2.05832 13.07 2.20868 12.744 2.32088C13.0991 2.32088 13.9587 2.67835 14.1234 2.15015L13.7786 2.09146C13.9977 1.93984 14.2347 1.81792 14.4837 1.72866C16.7102 2.20636 18.7358 3.39707 20.2741 5.13262H20.2433C19.8695 5.09866 19.4954 5.19235 19.1778 5.39939C19.0608 5.52087 18.9229 5.61859 18.7712 5.6875C18.6168 5.73552 18.4469 5.6875 18.2925 5.74619C17.7315 5.94893 17.819 7.22942 17.083 7.03735C16.733 6.94665 16.4859 6.50381 16.3109 6.22104C16.1359 5.93826 15.8785 5.76753 16.069 5.45274H15.8065C15.9249 5.18064 16.3212 5.20198 16.3881 5.05793C16.5528 4.70579 15.9352 4.66844 15.7602 4.62043C15.9712 4.38033 16.0741 4.70046 16.2749 4.6471C16.4756 4.59375 16.1668 4.31631 16.0484 4.2843C16.0072 4.2843 15.3021 4.48704 15.7087 4.1029L14.2109 3.08918C14.1234 3.46799 14.88 3.6814 15.1271 3.82012C15.0859 3.97485 14.8594 4.20427 14.6844 4.13491C14.5094 4.06555 14.5815 3.78277 14.3344 3.80945C14.1543 4.25229 14.7102 4.12424 14.7616 4.39101C14.8131 4.65777 14.5506 4.56707 14.4477 4.56174C14.4477 4.56174 14.2315 4.34832 14.2212 4.51372C14.2109 4.67912 14.53 4.62576 14.5506 4.81783C14.2305 4.82501 13.9203 4.70251 13.6859 4.47637C13.3996 4.28455 13.0545 4.21036 12.7183 4.26829C12.8641 4.22182 13.0041 4.15733 13.1352 4.07622C13.2528 3.97597 13.3582 3.86131 13.4491 3.73476C13.516 3.5 13.4491 3.51601 13.233 3.36128C13.0454 3.17556 12.8253 3.02886 12.5844 2.92912C11.7558 2.75305 12.3322 3.72409 11.6991 3.85747C11.555 3.85747 11.2822 3.81479 11.1844 3.89482C11.0866 3.97485 11.1124 4.18826 11.0352 4.26829C10.958 4.34832 10.7058 4.44969 10.5513 4.5564C10.3242 4.70225 10.1267 4.89253 9.96973 5.11662C9.63517 5.79421 10.7161 6.00229 11.1278 6.18369C11.3131 6.27439 11.8535 6.39177 11.9565 6.54116C12.0594 6.69055 11.8381 6.93064 12.1212 7.07469C12.1784 7.1025 12.2419 7.11324 12.3046 7.1057C12.3674 7.09816 12.4268 7.07264 12.4763 7.03201C12.5999 6.88262 12.4249 6.84527 12.394 6.67454C12.3374 6.33841 12.43 6.4718 12.5896 6.34375C12.9138 6.09299 12.8418 6.07698 12.7234 5.66616C12.6719 5.47942 12.466 4.95122 12.6462 4.8125C12.8263 4.67378 13.3822 4.91387 13.5624 4.93521C13.7425 4.95655 13.8866 5.27134 14.005 5.39939C14.1234 5.52744 14.2161 5.66082 14.3447 5.63948C14.5558 5.60747 14.4683 5.4154 14.5918 5.32469C14.916 5.0846 15.0035 5.41006 15.1322 5.73552C15.2249 5.98284 15.3839 6.19757 15.5903 6.35442C15.6933 6.45046 16.1359 6.77591 16.105 6.97866C16.0741 7.1814 15.5903 7.32012 15.4308 7.36814C14.916 7.53354 14.005 7.0907 13.8866 7.90168C14.0771 7.82698 14.6278 7.36814 14.7925 7.57622C14.8646 7.67759 14.7308 7.82698 14.7616 7.92835C14.8543 8.23247 15.0756 8.12576 15.3072 8.07774L15.2609 8.10442C15.5749 7.93369 15.5388 7.9657 15.6881 7.68826C15.7363 7.55533 15.7984 7.4283 15.8734 7.30945C16.0999 7.08537 16.1359 7.24009 16.28 7.41082C16.316 7.45884 16.666 7.99771 16.5425 7.97104C16.3517 7.91475 16.1517 7.89991 15.9551 7.92745C15.7585 7.95499 15.5694 8.02432 15.3999 8.1311C15.2124 8.29451 15.0067 8.43421 14.7874 8.54726C14.7308 8.54726 14.319 8.61128 14.3653 8.54726C14.4116 8.48323 14.6844 8.36585 14.7822 8.24314C14.5094 8.12576 14.2675 8.38719 14.0771 8.54192C13.8866 8.69665 13.7991 8.86204 13.6087 9.04878C13.5212 9.12881 13.3668 9.14482 13.2844 9.25152C13.2021 9.35823 13.1918 9.51296 13.1197 9.60899C13.0477 9.70503 12.9293 9.60899 12.8727 9.74238C12.816 9.87576 12.9396 9.99848 12.9087 10.0945C12.8572 10.2759 12.5381 10.42 12.4197 10.548L12.466 10.5C12.3324 10.619 12.2084 10.7493 12.0955 10.8895C12.178 11.1721 12.2264 11.4642 12.2396 11.7591C12.116 12.1593 11.869 11.5404 11.7712 11.3857C11.4263 10.8521 10.7418 11.2043 10.2785 11.247C10.1162 11.2749 9.96216 11.3412 9.82852 11.4408C9.69489 11.5405 9.58522 11.6707 9.50804 11.8214C9.43086 11.9722 9.38825 12.1393 9.38352 12.3099C9.37879 12.4804 9.41206 12.6498 9.48076 12.8049C9.55503 12.9538 9.67612 13.072 9.82399 13.1399C9.97187 13.2078 10.1377 13.2214 10.294 13.1784C10.5977 13.1143 10.6903 12.6448 10.9734 12.6448C11.4881 12.6448 10.9734 13.1784 10.9425 13.3971C10.9116 13.6159 11.0094 13.6052 11.1947 13.6532C11.38 13.7012 11.5241 13.5892 11.6425 13.6532C11.7609 13.7172 11.7094 13.9893 11.8124 13.8986C11.7684 13.9519 11.735 14.0136 11.7141 14.0802C11.6932 14.1468 11.6851 14.2171 11.6904 14.2869C11.6956 14.3568 11.7141 14.4249 11.7448 14.4873C11.7754 14.5498 11.8176 14.6054 11.869 14.6509C12.0955 14.8216 12.3837 14.6509 12.605 14.7309C13.058 14.8537 12.8418 14.6936 13.2433 14.4375C13.5109 14.2668 13.5572 14.4695 13.758 14.4695C13.9587 14.4695 13.9638 14.2828 14.1749 14.3361C14.3859 14.3895 14.4116 14.5229 14.6124 14.5549C14.6999 14.5549 14.7822 14.5175 14.8646 14.5282C15.2249 14.6157 15.5568 14.7997 15.8271 15.0617C16.069 15.2538 16.2285 15.2111 16.5168 15.3018C16.6709 15.4027 16.8023 15.537 16.9018 15.6954C17.0013 15.8538 17.0666 16.0325 17.0933 16.2195C17.0933 16.2569 16.9955 16.3102 16.9337 16.4276H22.7344C23.0247 16.3927 23.3185 16.4438 23.5818 16.5751C23.8451 16.7064 24.0671 16.9124 24.2219 17.1692C24.5825 15.8603 24.7457 14.5016 24.7058 13.141C24.7058 5.8689 19.1727 0 12.3528 0ZM23.1616 17.6067H1.54399C1.40748 17.6067 1.27656 17.6629 1.18004 17.763C1.08351 17.863 1.02928 17.9987 1.02928 18.1402V24.0091C1.02928 24.1506 1.08351 24.2864 1.18004 24.3864C1.27656 24.4865 1.40748 24.5427 1.54399 24.5427H23.1616C23.2981 24.5427 23.4291 24.4865 23.5256 24.3864C23.6221 24.2864 23.6763 24.1506 23.6763 24.0091V18.1402C23.6763 17.9987 23.6221 17.863 23.5256 17.763C23.4291 17.6629 23.2981 17.6067 23.1616 17.6067ZM7.26752 22.9421H6.50576L5.61531 20.3277L4.70943 22.9421H3.95281L2.5734 19.2073H3.49473L4.31311 21.8216L5.30134 19.2073H5.91899L6.88664 21.8216L7.72046 19.2073H8.63149L7.26752 22.9421ZM14.041 22.9421H13.2844L12.394 20.3277L11.4881 22.9421H10.7315L9.36752 19.2073H10.294L11.1124 21.8216L12.0749 19.2073H12.6977L13.6653 21.8216L14.494 19.2073H15.3999L14.041 22.9421ZM20.7322 22.9421H19.9962L19.1058 20.3277L18.1999 22.9421H17.4433L16.0793 19.2073H16.8616L17.8035 21.8216L18.7918 19.2073H19.4094L20.2484 21.8216H20.3977L21.2109 19.2073H22.1322L20.7322 22.9421Z" fill="#1474C4"/>
</g>
<defs>
<clipPath id="clip0_1348_182">
<rect width="24.7059" height="25.6098" fill="white"/>
</clipPath>
</defs>
</svg>
