<svg width="18" height="24" viewBox="0 0 18 24" fill="none" xmlns="http://www.w3.org/2000/svg">
<path d="M9 0C10.9219 0 12.6094 1.26562 13.2188 3H15C16.6406 3 18 4.35937 18 6V21C18 22.6875 16.6406 24 15 24H3C1.3125 24 0 22.6875 0 21V6C0 4.35937 1.3125 3 3 3H4.73438C5.34375 1.26562 7.03125 0 9 0ZM9 3C8.15625 3 7.5 3.70312 7.5 4.5C7.5 5.34375 8.15625 6 9 6C9.79688 6 10.5 5.34375 10.5 4.5C10.5 3.70312 9.79688 3 9 3ZM5.25 9C4.82812 9 4.5 9.375 4.5 9.75C4.5 10.1719 4.82812 10.5 5.25 10.5H12.75C13.125 10.5 13.5 10.1719 13.5 9.75C13.5 9.375 13.125 9 12.75 9H5.25Z" fill="#1474C4"/>
</svg>
