<svg width="16" height="16" viewBox="0 0 16 16" fill="none" xmlns="http://www.w3.org/2000/svg">
<g clip-path="url(#clip0_906_826)">
<path d="M15.6667 7H9V0.333333C9 0.244928 8.96488 0.160143 8.90237 0.0976311C8.83986 0.035119 8.75507 0 8.66667 0L7.33333 0C7.24493 0 7.16014 0.035119 7.09763 0.0976311C7.03512 0.160143 7 0.244928 7 0.333333V7H0.333333C0.244928 7 0.160143 7.03512 0.0976311 7.09763C0.035119 7.16014 0 7.24493 0 7.33333L0 8.66667C0 8.75507 0.035119 8.83986 0.0976311 8.90237C0.160143 8.96488 0.244928 9 0.333333 9H7V15.6667C7 15.7551 7.03512 15.8399 7.09763 15.9024C7.16014 15.9649 7.24493 16 7.33333 16H8.66667C8.75507 16 8.83986 15.9649 8.90237 15.9024C8.96488 15.8399 9 15.7551 9 15.6667V9H15.6667C15.7551 9 15.8399 8.96488 15.9024 8.90237C15.9649 8.83986 16 8.75507 16 8.66667V7.33333C16 7.24493 15.9649 7.16014 15.9024 7.09763C15.8399 7.03512 15.7551 7 15.6667 7Z" fill="#1474C4"/>
</g>
<defs>
<clipPath id="clip0_906_826">
<rect width="16" height="16" fill="white"/>
</clipPath>
</defs>
</svg>
