<svg width="16" height="16" viewBox="0 0 16 16" fill="none" xmlns="http://www.w3.org/2000/svg">
<g clip-path="url(#clip0_906_425)">
<path d="M13.943 8.45702V7.31402L15.7715 6.17102L15.2 4.68552L12.9145 4.80002C12.8 4.57152 12.5715 4.11452 12.229 3.88552L13.029 1.94252L11.886 1.02802L10.286 2.51352C10.0575 2.39902 9.60048 2.28502 9.25748 2.17052L8.57198 -0.000976562H7.08648L6.62948 2.17052C6.40098 2.28502 5.94398 2.39902 5.60098 2.51352L3.88648 1.14202L2.74348 2.05652L3.42898 3.99952C3.20048 4.22802 3.08598 4.68502 2.74348 4.91402L0.457977 4.79952L0.000976562 6.28502L1.82948 7.42802V8.57102L0.000976562 9.59952L0.572477 11.085L2.85798 10.9705C2.97248 11.199 3.20098 11.656 3.54348 11.885L2.74348 13.828L3.88648 14.7425L5.60098 13.257C5.82948 13.3715 6.28648 13.4855 6.62948 13.6L7.31498 15.657H8.80048L9.25748 13.714C9.48598 13.5995 9.94298 13.4855 10.286 13.371L12.0005 14.8565L13.1435 13.942L12.3435 11.999C12.572 11.7705 12.6865 11.3135 13.029 11.0845L15.3145 11.199L16 9.59902L13.943 8.45602V8.45702ZM7.88548 10.6285C6.39998 10.6285 5.25698 9.48552 5.25698 8.00002C5.25698 6.51452 6.39998 5.37152 7.88548 5.37152C9.37098 5.37152 10.514 6.51452 10.514 8.00002C10.514 9.48552 9.37098 10.6285 7.88548 10.6285Z" fill="#1474C4"/>
</g>
<defs>
<clipPath id="clip0_906_425">
<rect width="16" height="16" fill="white"/>
</clipPath>
</defs>
</svg>
