<svg width="16" height="16" viewBox="0 0 16 16" fill="none" xmlns="http://www.w3.org/2000/svg">
<g clip-path="url(#clip0_2216_3787)">
<path d="M3.28125 7.34375C3.09375 7.875 2.5 8.15625 2 7.96875C1.46875 7.78125 1.1875 7.21875 1.375 6.6875C1.71875 5.71875 2.28125 4.8125 3.03125 4.0625C5.78125 1.34375 10.1875 1.34375 12.9375 4.0625L13.4688 4.625V3.5C13.4688 2.96875 13.9375 2.5 14.4688 2.5C15.0312 2.5 15.4688 2.96875 15.4688 3.5V7C15.4688 7.5625 15.0312 8 14.4688 8H11C10.4375 8 10 7.5625 10 7C10 6.46875 10.4375 6 11 6H12.0625L11.5312 5.46875C9.5625 3.53125 6.40625 3.53125 4.4375 5.46875C3.90625 6.03125 3.5 6.65625 3.28125 7.34375ZM1.21875 10.0625C1.25 10.0312 1.3125 10.0312 1.34375 10.0312C1.40625 10.0312 1.4375 10 1.5 10H5C5.53125 10 6 10.4688 6 11C6 11.5625 5.53125 12 5 12H3.90625L4.4375 12.5625C6.40625 14.5 9.5625 14.5 11.5312 12.5625C12.0625 12 12.4688 11.375 12.6875 10.6875C12.875 10.1562 13.4688 9.875 13.9688 10.0625C14.5 10.25 14.7812 10.8125 14.5938 11.3438C14.25 12.3125 13.6875 13.1875 12.9375 13.9688C10.1875 16.6875 5.78125 16.6875 3.03125 13.9688L2.5 13.4062V14.5C2.5 15.0625 2.03125 15.5 1.5 15.5C0.9375 15.5 0.5 15.0625 0.5 14.5V11.0312C0.5 10.9688 0.5 10.9062 0.5 10.875C0.5 10.8125 0.5 10.7812 0.53125 10.75C0.5625 10.5938 0.65625 10.4375 0.78125 10.3125C0.90625 10.1875 1.0625 10.0938 1.21875 10.0625Z" fill="#001B41"/>
</g>
<defs>
<clipPath id="clip0_2216_3787">
<rect width="16" height="16" fill="white"/>
</clipPath>
</defs>
</svg>
