<svg width="24" height="25" viewBox="0 0 24 25" fill="none" xmlns="http://www.w3.org/2000/svg">
<path d="M12.0234 24.5C7.71094 24.5 3.77344 22.25 1.61719 18.5C-0.539062 14.7969 -0.539062 10.25 1.61719 6.5C3.77344 2.79688 7.71094 0.5 12.0234 0.5C16.2891 0.5 20.2266 2.79688 22.3828 6.5C24.5391 10.25 24.5391 14.7969 22.3828 18.5C20.2266 22.25 16.2891 24.5 12.0234 24.5ZM10.1484 16.25C9.49219 16.25 9.02344 16.7656 9.02344 17.375C9.02344 18.0312 9.49219 18.5 10.1484 18.5H13.8984C14.5078 18.5 15.0234 18.0312 15.0234 17.375C15.0234 16.7656 14.5078 16.25 13.8984 16.25H13.5234V12.125C13.5234 11.5156 13.0078 11 12.3984 11H10.1484C9.49219 11 9.02344 11.5156 9.02344 12.125C9.02344 12.7812 9.49219 13.25 10.1484 13.25H11.2734V16.25H10.1484ZM12.0234 6.5C11.1797 6.5 10.5234 7.20312 10.5234 8C10.5234 8.84375 11.1797 9.5 12.0234 9.5C12.8203 9.5 13.5234 8.84375 13.5234 8C13.5234 7.20312 12.8203 6.5 12.0234 6.5Z" fill="#1474C4"/>
</svg>
