<svg width="16" height="16" viewBox="0 0 16 16" fill="none" xmlns="http://www.w3.org/2000/svg">
<g clip-path="url(#clip0_1095_7537)">
<path d="M9.23077 1.23077V6.76923H14.7692C15.4231 6.76923 16 7.34615 16 8C16 8.69231 15.4231 9.23077 14.7692 9.23077H9.23077V14.7692C9.23077 15.4615 8.65385 16 8 16C7.30769 16 6.76923 15.4615 6.76923 14.7692V9.23077H1.23077C0.538462 9.23077 0 8.69231 0 8C0 7.34615 0.538462 6.76923 1.23077 6.76923H6.76923V1.23077C6.76923 0.576923 7.30769 0 8 0C8.65385 0 9.23077 0.576923 9.23077 1.23077Z" fill="#1474C4"/>
</g>
<defs>
<clipPath id="clip0_1095_7537">
<rect width="16" height="16" fill="white"/>
</clipPath>
</defs>
</svg>
