<svg width="24" height="24" viewBox="0 0 24 24" fill="none" xmlns="http://www.w3.org/2000/svg">
<path d="M12 12C9.84375 12 7.875 10.875 6.79688 9C5.71875 7.17188 5.71875 4.875 6.79688 3C7.875 1.17188 9.84375 0 12 0C14.1094 0 16.0781 1.17188 17.1562 3C18.2344 4.875 18.2344 7.17188 17.1562 9C16.0781 10.875 14.1094 12 12 12ZM9.84375 14.25H14.1094C18.75 14.25 22.5 18 22.5 22.6406C22.5 23.3906 21.8438 24 21.0938 24H2.85938C2.10938 24 1.5 23.3906 1.5 22.6406C1.5 18 5.20312 14.25 9.84375 14.25Z" fill="#1474C4"/>
</svg>
