<svg width="32" height="32" viewBox="0 0 32 32" fill="none" xmlns="http://www.w3.org/2000/svg">
<path d="M18.6205 4.23662C18.1742 3.79031 18.1742 3.06669 18.6205 2.62038C19.0668 2.17407 19.7904 2.17407 20.2368 2.62038L25.951 8.33467C26.1654 8.54899 26.2858 8.83968 26.2858 9.14279C26.2858 9.44589 26.1654 9.73658 25.951 9.95091L20.2368 15.6652C19.7904 16.1115 19.0668 16.1115 18.6205 15.6652C18.1742 15.2189 18.1742 14.4953 18.6205 14.049L22.3838 10.2856H6.85721C6.22603 10.2856 5.71436 9.77397 5.71436 9.14279C5.71436 8.51161 6.22603 7.99993 6.85721 7.99993H22.3838L18.6205 4.23662ZM13.3796 17.9509C13.8259 17.5046 13.8259 16.781 13.3796 16.3347C12.9333 15.8884 12.2097 15.8884 11.7634 16.3347L6.04909 22.049C5.83476 22.2633 5.71436 22.554 5.71436 22.8571C5.71436 23.1602 5.83476 23.4509 6.04909 23.6652L11.7634 29.3795C12.2097 29.8258 12.9333 29.8258 13.3796 29.3795C13.8259 28.9332 13.8259 28.2096 13.3796 27.7632L9.61631 23.9999H25.1429C25.7741 23.9999 26.2858 23.4883 26.2858 22.8571C26.2858 22.2259 25.7741 21.7142 25.1429 21.7142H9.61631L13.3796 17.9509Z" fill="#242424"/>
</svg>
