<svg width="24" height="24" viewBox="0 0 24 24" fill="none" xmlns="http://www.w3.org/2000/svg">
<g clip-path="url(#clip0_1370_4038)">
<path d="M14.3529 1.03125L14.4941 2.10938C14.5412 2.39062 14.7294 2.625 15.0118 2.71875C15.4824 2.90625 15.9529 3.09375 16.3765 3.28125C16.6588 3.42188 16.9882 3.42188 17.2235 3.23438L18.1176 2.57812C18.4941 2.25 19.0118 2.25 19.3882 2.53125C19.5294 2.625 19.6706 2.71875 19.8118 2.85938L21.2235 4.3125C21.3176 4.40625 21.4118 4.5 21.5059 4.59375C21.7882 4.96875 21.7882 5.53125 21.4588 5.90625L20.8 6.75C20.6118 6.98438 20.6118 7.3125 20.7529 7.59375C20.9882 8.01562 21.1765 8.48438 21.3176 9C21.4118 9.28125 21.6471 9.46875 21.9765 9.51562L23.0588 9.65625C23.5294 9.70312 23.9059 10.0781 24 10.5469C24 10.6406 24 10.7344 24 10.8281V13.2656C24 13.3125 24 13.4062 24 13.5C23.9059 13.9688 23.5294 14.3438 23.0588 14.3906L21.9765 14.5312C21.6471 14.5781 21.4118 14.7656 21.3176 15.0938C21.1765 15.5625 20.9882 16.0312 20.7529 16.4531C20.6118 16.7344 20.6118 17.0625 20.8 17.2969L21.4588 18.1406C21.7882 18.5156 21.7882 19.0781 21.5059 19.4531C21.4118 19.5469 21.3176 19.6406 21.2235 19.7344L19.8118 21.1875C19.6706 21.2812 19.5294 21.4219 19.3882 21.5156C19.0118 21.7969 18.4941 21.7969 18.1176 21.4688L17.2235 20.8125C16.9882 20.625 16.6588 20.625 16.4235 20.7656C15.9529 20.9531 15.5294 21.1406 15.0588 21.2812C14.7294 21.375 14.5412 21.6562 14.4941 21.9375L14.3529 23.0156C14.3059 23.4844 13.9294 23.9062 13.4588 23.9531C12.9882 24 12.5176 24 12.0471 24C11.5294 24 11.0118 24 10.4941 23.9062C10.0235 23.8594 9.64706 23.4844 9.6 22.9688L9.45882 21.8906C9.41177 21.6094 9.17647 21.375 8.89412 21.2812C8.47059 21.0938 8 20.9062 7.57647 20.7188C7.34118 20.5781 6.96471 20.5781 6.72941 20.7656L5.88235 21.4219C5.50588 21.75 4.98824 21.75 4.56471 21.4688C3.81176 20.8594 3.10588 20.1562 2.49412 19.3594C2.21176 18.9844 2.21176 18.4219 2.54118 18.0469L3.2 17.2031C3.38824 16.9688 3.38824 16.6406 3.24706 16.3594C3.05882 15.9375 2.87059 15.5156 2.72941 15.0938C2.63529 14.8125 2.4 14.5781 2.07059 14.5312L0.988235 14.3906C0.517647 14.3438 0.141176 13.9688 0.0470588 13.5C0 13.0312 0 12.5156 0 12C0 11.5312 0 11.0156 0.0470588 10.5469C0.141176 10.0781 0.517647 9.70312 0.988235 9.65625L2.07059 9.51562C2.35294 9.46875 2.63529 9.23438 2.72941 8.95312C2.87059 8.53125 3.05882 8.10938 3.24706 7.6875C3.38824 7.40625 3.38824 7.07812 3.2 6.84375L2.49412 6C2.21176 5.57812 2.21176 5.0625 2.49412 4.6875C3.10588 3.89062 3.81176 3.1875 4.56471 2.57812C4.94118 2.29688 5.50588 2.29688 5.88235 2.625L6.72941 3.28125C6.96471 3.46875 7.29412 3.46875 7.57647 3.32812C8 3.14062 8.42353 2.95312 8.89412 2.76562C9.17647 2.67188 9.41177 2.4375 9.45882 2.15625L9.55294 1.07812C9.64706 0.5625 9.97647 0.1875 10.4941 0.140625C10.9647 0.046875 11.4824 0 12.0471 0C12.5176 0 12.9882 0.046875 13.4118 0.09375C13.9294 0.140625 14.3059 0.5625 14.3529 1.03125ZM12.0471 8.25C10.6824 8.25 9.45882 9 8.75294 10.125C8.09412 11.2969 8.09412 12.75 8.75294 13.875C9.45882 15.0469 10.6824 15.75 12.0471 15.75C13.3647 15.75 14.5882 15.0469 15.2941 13.875C15.9529 12.75 15.9529 11.2969 15.2941 10.125C14.5882 9 13.3647 8.25 12.0471 8.25Z" fill="#001B41"/>
</g>
<defs>
<clipPath id="clip0_1370_4038">
<rect width="24" height="24" fill="white"/>
</clipPath>
</defs>
</svg>
