<svg width="16" height="16" viewBox="0 0 16 16" fill="none" xmlns="http://www.w3.org/2000/svg">
<path d="M5.21875 0.5625C5.375 0.21875 5.71875 0 6.09375 0H9.875C10.25 0 10.5938 0.21875 10.75 0.5625L11 1H14C14.5312 1 15 1.46875 15 2C15 2.5625 14.5312 3 14 3H2C1.4375 3 1 2.5625 1 2C1 1.46875 1.4375 1 2 1H5L5.21875 0.5625ZM2 4H14V14C14 15.125 13.0938 16 12 16H4C2.875 16 2 15.125 2 14V4ZM5 6C4.71875 6 4.5 6.25 4.5 6.5V13.5C4.5 13.7812 4.71875 14 5 14C5.25 14 5.5 13.7812 5.5 13.5V6.5C5.5 6.25 5.25 6 5 6ZM8 6C7.71875 6 7.5 6.25 7.5 6.5V13.5C7.5 13.7812 7.71875 14 8 14C8.25 14 8.5 13.7812 8.5 13.5V6.5C8.5 6.25 8.25 6 8 6ZM11 6C10.7188 6 10.5 6.25 10.5 6.5V13.5C10.5 13.7812 10.7188 14 11 14C11.25 14 11.5 13.7812 11.5 13.5V6.5C11.5 6.25 11.25 6 11 6Z" fill="#001B41"/>
</svg>
