<svg width="32" height="32" viewBox="0 0 32 32" fill="none" xmlns="http://www.w3.org/2000/svg">
<g clip-path="url(#clip0_1381_10677)">
<path d="M24.9375 24.0312C23.5 21.5938 20.9375 19.9688 18 19.9688H14C11 19.9688 8.4375 21.5938 7.0625 24.0312C9.25 26.4688 12.4375 27.9688 16 27.9688C19.5 27.9688 22.6875 26.4688 24.9375 24.0312ZM0 15.9688C0 10.2812 3 5.03125 8 2.15625C12.9375 -0.71875 19 -0.71875 24 2.15625C28.9375 5.03125 32 10.2812 32 15.9688C32 21.7188 28.9375 26.9688 24 29.8438C19 32.7188 12.9375 32.7188 8 29.8438C3 26.9688 0 21.7188 0 15.9688ZM16 16.9688C17.5625 16.9688 19.0625 16.1562 19.875 14.7188C20.6875 13.3438 20.6875 11.6562 19.875 10.2188C19.0625 8.84375 17.5625 7.96875 16 7.96875C14.375 7.96875 12.875 8.84375 12.0625 10.2188C11.25 11.6562 11.25 13.3438 12.0625 14.7188C12.875 16.1562 14.375 16.9688 16 16.9688Z" fill="#1474C4"/>
</g>
<defs>
<clipPath id="clip0_1381_10677">
<rect width="32" height="32" fill="white"/>
</clipPath>
</defs>
</svg>
