<svg width="16" height="15" viewBox="0 0 16 15" fill="none" xmlns="http://www.w3.org/2000/svg">
<path d="M6.68149 0.785435C7.24892 -0.261875 8.75196 -0.261795 9.31928 0.785573L15.8198 12.7865C16.3612 13.786 15.6375 15.0009 14.5009 15.0009H1.4982C0.361474 15.0009 -0.362172 13.7858 0.179337 12.7864L6.68149 0.785435ZM8.5 5.5C8.5 5.22386 8.27614 5 8 5C7.72386 5 7.5 5.22386 7.5 5.5V9.5C7.5 9.77614 7.72386 10 8 10C8.27614 10 8.5 9.77614 8.5 9.5V5.5ZM8.75 11.75C8.75 11.3358 8.41421 11 8 11C7.58579 11 7.25 11.3358 7.25 11.75C7.25 12.1642 7.58579 12.5 8 12.5C8.41421 12.5 8.75 12.1642 8.75 11.75Z" fill="#DA3B01"/>
</svg>
