<svg width="22" height="24" viewBox="0 0 22 24" fill="none" xmlns="http://www.w3.org/2000/svg">
<path d="M10.8921 23.904C6.09206 23.904 0.488058 22.716 0.464058 19.38C0.440058 17.364 2.68406 16.572 3.52406 16.272L3.72806 16.2C5.92406 15.384 6.51206 14.964 7.28006 14.448C7.43606 14.34 7.47206 14.124 7.47206 13.944C6.76406 13.212 6.54806 11.712 6.48806 10.896C5.86406 10.44 5.51606 9.60001 5.43206 8.40001C5.43206 8.40001 5.43206 8.48401 5.42006 8.28001C5.39606 7.94401 5.33606 6.96001 5.96006 6.45601C5.90006 5.48401 5.90006 4.22401 5.90006 4.04401C6.04406 1.15201 8.57606 0.120008 10.8921 0.0960083H11.0841C14.0961 0.132008 15.9561 1.59601 16.0761 4.00801C16.0761 4.22401 16.0761 5.48401 16.0161 6.46801C16.6521 6.97201 16.5801 7.95601 16.5561 8.28001C16.5561 8.30401 16.5561 8.34001 16.5441 8.36401C16.4601 9.60001 16.1121 10.44 15.5001 10.896C15.4401 11.712 15.2241 13.212 14.5161 13.944C14.5161 14.124 14.5521 14.34 14.7081 14.448C15.4641 14.964 16.0641 15.384 18.2481 16.2L18.4641 16.284C19.3041 16.584 21.5481 17.364 21.5241 19.392C21.4881 22.728 15.8961 23.904 11.1081 23.904H10.9041H10.8921ZM10.9041 22.092H11.0601C15.8361 22.092 19.7001 20.868 19.7121 19.356C19.7241 18.624 18.4161 18.168 17.8521 17.964L17.6001 17.88C15.3921 17.052 14.6481 16.596 13.6881 15.936C12.6201 15.204 12.6321 13.896 12.8001 13.236C12.8721 12.984 13.0401 12.768 13.2681 12.66C13.4841 12.336 13.7001 11.148 13.7241 10.32C13.731 10.1299 13.7972 9.94671 13.9134 9.79609C14.0295 9.64547 14.1899 9.53495 14.3721 9.48001C14.3841 9.48001 14.6721 9.38401 14.7441 8.28001C14.7441 8.23201 14.7561 8.17201 14.7561 8.11201V8.04001C14.3961 7.92001 14.1321 7.58401 14.1321 7.18801C14.1321 7.14001 14.1321 7.08001 14.1441 7.03201C14.2401 6.51601 14.2641 4.95601 14.2641 4.03201C14.1681 2.19601 12.2121 1.89601 11.0481 1.88401H10.8921C9.75206 1.89601 7.78406 2.20801 7.70006 4.08001C7.70006 4.95601 7.73606 6.51601 7.82006 7.03201C7.83206 7.08001 7.83206 7.14001 7.83206 7.18801C7.83206 7.58401 7.56806 7.93201 7.20806 8.04001V8.10001C7.22006 8.16001 7.22006 8.22001 7.22006 8.26801C7.29206 9.36001 7.58006 9.45601 7.59206 9.46801C7.97606 9.57601 8.24006 9.93601 8.24006 10.332C8.27606 11.136 8.48006 12.324 8.69606 12.636C8.92406 12.756 9.10406 12.96 9.16406 13.212C9.33206 13.872 9.34406 15.18 8.27606 15.912C7.31606 16.572 6.57206 17.028 4.35206 17.868L4.10006 17.964C3.54806 18.156 2.24006 18.624 2.24006 19.356C2.25206 20.868 6.11606 22.092 10.8561 22.092H10.9041Z" fill="#0B2A63"/>
</svg>
