<svg width="16" height="16" viewBox="0 0 16 16" fill="none" xmlns="http://www.w3.org/2000/svg">
<g clip-path="url(#clip0_1095_7544)">
<path d="M9.53125 0.6875L9.625 1.40625C9.65625 1.59375 9.78125 1.75 9.96875 1.8125C10.2812 1.9375 10.5937 2.0625 10.875 2.1875C11.0625 2.28125 11.2812 2.28125 11.4375 2.15625L12.0312 1.71875C12.2812 1.5 12.625 1.5 12.875 1.6875C12.9687 1.75 13.0625 1.8125 13.1562 1.90625L14.0937 2.875C14.1562 2.9375 14.2187 3 14.2812 3.0625C14.4687 3.3125 14.4687 3.6875 14.25 3.9375L13.8125 4.5C13.6875 4.65625 13.6875 4.875 13.7812 5.0625C13.9375 5.34375 14.0625 5.65625 14.1562 6C14.2187 6.1875 14.375 6.3125 14.5937 6.34375L15.3125 6.4375C15.625 6.46875 15.875 6.71875 15.9375 7.03125C15.9375 7.09375 15.9375 7.15625 15.9375 7.21875V8.84375C15.9375 8.875 15.9375 8.9375 15.9375 9C15.875 9.3125 15.625 9.5625 15.3125 9.59375L14.5937 9.6875C14.375 9.71875 14.2187 9.84375 14.1562 10.0625C14.0625 10.375 13.9375 10.6875 13.7812 10.9688C13.6875 11.1562 13.6875 11.375 13.8125 11.5312L14.25 12.0938C14.4687 12.3438 14.4687 12.7188 14.2812 12.9688C14.2187 13.0312 14.1562 13.0938 14.0937 13.1562L13.1562 14.125C13.0625 14.1875 12.9687 14.2812 12.875 14.3438C12.625 14.5312 12.2812 14.5312 12.0312 14.3125L11.4375 13.875C11.2812 13.75 11.0625 13.75 10.9062 13.8438C10.5937 13.9688 10.3125 14.0938 10 14.1875C9.78125 14.25 9.65625 14.4375 9.625 14.625L9.53125 15.3438C9.5 15.6562 9.25 15.9375 8.9375 15.9688C8.625 16 8.3125 16 8 16C7.65625 16 7.3125 16 6.96875 15.9375C6.65625 15.9062 6.40625 15.6562 6.375 15.3125L6.28125 14.5938C6.25 14.4062 6.09375 14.25 5.90625 14.1875C5.625 14.0625 5.3125 13.9375 5.03125 13.8125C4.875 13.7188 4.625 13.7188 4.46875 13.8438L3.90625 14.2812C3.65625 14.5 3.3125 14.5 3.03125 14.3125C2.53125 13.9062 2.0625 13.4375 1.65625 12.9062C1.46875 12.6562 1.46875 12.2812 1.6875 12.0312L2.125 11.4688C2.25 11.3125 2.25 11.0938 2.15625 10.9062C2.03125 10.625 1.90625 10.3438 1.8125 10.0625C1.75 9.875 1.59375 9.71875 1.375 9.6875L0.65625 9.59375C0.34375 9.5625 0.09375 9.3125 0.03125 9C0 8.6875 0 8.34375 0 8C0 7.6875 0 7.34375 0.03125 7.03125C0.09375 6.71875 0.34375 6.46875 0.65625 6.4375L1.375 6.34375C1.5625 6.3125 1.75 6.15625 1.8125 5.96875C1.90625 5.6875 2.03125 5.40625 2.15625 5.125C2.25 4.9375 2.25 4.71875 2.125 4.5625L1.65625 4C1.46875 3.71875 1.46875 3.375 1.65625 3.125C2.0625 2.59375 2.53125 2.125 3.03125 1.71875C3.28125 1.53125 3.65625 1.53125 3.90625 1.75L4.46875 2.1875C4.625 2.3125 4.84375 2.3125 5.03125 2.21875C5.3125 2.09375 5.59375 1.96875 5.90625 1.84375C6.09375 1.78125 6.25 1.625 6.28125 1.4375L6.34375 0.71875C6.40625 0.375 6.625 0.125 6.96875 0.09375C7.28125 0.03125 7.625 0 8 0C8.3125 0 8.625 0.03125 8.90625 0.0625C9.25 0.09375 9.5 0.375 9.53125 0.6875ZM8 5.5C7.09375 5.5 6.28125 6 5.8125 6.75C5.375 7.53125 5.375 8.5 5.8125 9.25C6.28125 10.0312 7.09375 10.5 8 10.5C8.875 10.5 9.6875 10.0312 10.1562 9.25C10.5937 8.5 10.5937 7.53125 10.1562 6.75C9.6875 6 8.875 5.5 8 5.5Z" fill="#1474C4"/>
</g>
<defs>
<clipPath id="clip0_1095_7544">
<rect width="16" height="16" fill="white"/>
</clipPath>
</defs>
</svg>
