<svg width="16" height="16" viewBox="0 0 16 16" fill="none" xmlns="http://www.w3.org/2000/svg">
<path d="M13.6349 4.04992L9.70359 7.98128L13.6349 11.9501C14.1217 12.3994 14.1217 13.1856 13.6349 13.6349C13.1856 14.1217 12.3994 14.1217 11.9501 13.6349L8.01872 9.70359L4.04992 13.6349C3.60062 14.1217 2.81435 14.1217 2.36505 13.6349C1.87832 13.1856 1.87832 12.3994 2.36505 11.9501L6.29641 7.98128L2.36505 4.04992C1.87832 3.60062 1.87832 2.81435 2.36505 2.36505C2.81435 1.87832 3.60062 1.87832 4.04992 2.36505L8.01872 6.29641L11.9501 2.36505C12.3994 1.87832 13.1856 1.87832 13.6349 2.36505C14.1217 2.81435 14.1217 3.60062 13.6349 4.04992Z" fill="#1474C4"/>
</svg>
