<svg width="24" height="24" viewBox="0 0 24 24" fill="none" xmlns="http://www.w3.org/2000/svg">
<path d="M13.8462 1.84615V10.1538H22.1538C23.1346 10.1538 24 11.0192 24 12C24 13.0385 23.1346 13.8462 22.1538 13.8462H13.8462V22.1538C13.8462 23.1923 12.9808 24 12 24C10.9615 24 10.1538 23.1923 10.1538 22.1538V13.8462H1.84615C0.807692 13.8462 0 13.0385 0 12C0 11.0192 0.807692 10.1538 1.84615 10.1538H10.1538V1.84615C10.1538 0.865385 10.9615 0 12 0C12.9808 0 13.8462 0.865385 13.8462 1.84615Z" fill="#001B41"/>
</svg>
