<svg width="25" height="21" viewBox="0 0 25 21" fill="none" xmlns="http://www.w3.org/2000/svg">
<path d="M21.5507 1.79143L9.22167 1.74101C9.22167 0.880686 8.54611 0.18042 7.71615 0.18042H3.01122C2.18126 0.18042 1.50571 0.880686 1.50571 1.74101V3.35203H23.0562C23.0562 2.4917 22.3806 1.79143 21.5507 1.79143ZM12.2713 5.04307L24.6582 5.04787L23.1187 19.3285C23.1187 19.3285 23.0655 20.5642 21.6086 20.9643C21.57 21.0148 3.05986 20.9643 3.05986 20.9643C3.05986 20.9643 1.83461 20.8139 1.56361 19.4237C1.56825 19.3389 0.0534668 5.04867 0.0534668 5.04867L12.2713 5.05828L12.2806 6.60927L1.79523 6.59966L3.0645 18.7595C3.0645 18.7595 3.28145 19.4101 3.99097 19.3797C13.1013 19.3845 20.6674 19.3997 20.6674 19.3997C20.6674 19.3997 21.5939 19.435 21.6178 18.6347C21.6472 18.6395 22.9396 6.61007 22.9396 6.61007H12.2806L12.2713 5.04467V5.04307Z" fill="#1474C4"/>
</svg>
