<svg width="58" height="58" viewBox="0 0 58 58" fill="none" xmlns="http://www.w3.org/2000/svg">
<g clip-path="url(#clip0_1381_7200)">
<path d="M36.25 0C34.2449 0 32.625 1.61992 32.625 3.625C32.625 5.63008 34.2449 7.25 36.25 7.25H45.6184L22.8148 30.0648C21.3988 31.4809 21.3988 33.7805 22.8148 35.1965C24.2309 36.6125 26.5305 36.6125 27.9465 35.1965L50.75 12.3816V21.75C50.75 23.7551 52.3699 25.375 54.375 25.375C56.3801 25.375 58 23.7551 58 21.75V3.625C58 1.61992 56.3801 0 54.375 0H36.25ZM9.0625 3.625C4.05547 3.625 0 7.68047 0 12.6875V48.9375C0 53.9445 4.05547 58 9.0625 58H45.3125C50.3195 58 54.375 53.9445 54.375 48.9375V36.25C54.375 34.2449 52.7551 32.625 50.75 32.625C48.7449 32.625 47.125 34.2449 47.125 36.25V48.9375C47.125 49.9344 46.3094 50.75 45.3125 50.75H9.0625C8.06563 50.75 7.25 49.9344 7.25 48.9375V12.6875C7.25 11.6906 8.06563 10.875 9.0625 10.875H21.75C23.7551 10.875 25.375 9.25508 25.375 7.25C25.375 5.24492 23.7551 3.625 21.75 3.625H9.0625Z" fill="#0F6CBD"/>
</g>
<defs>
<clipPath id="clip0_1381_7200">
<rect width="58" height="58" fill="white"/>
</clipPath>
</defs>
</svg>
