<svg width="24" height="24" viewBox="0 0 24 24" fill="none" xmlns="http://www.w3.org/2000/svg">
<path d="M13.3385 1.77846V9.78154H21.3415C22.2863 9.78154 23.12 10.6152 23.12 11.56C23.12 12.5604 22.2863 13.3385 21.3415 13.3385H13.3385V21.3415C13.3385 22.3419 12.5048 23.12 11.56 23.12C10.5596 23.12 9.78154 22.3419 9.78154 21.3415V13.3385H1.77846C0.778077 13.3385 0 12.5604 0 11.56C0 10.6152 0.778077 9.78154 1.77846 9.78154H9.78154V1.77846C9.78154 0.833654 10.5596 0 11.56 0C12.5048 0 13.3385 0.833654 13.3385 1.77846Z" fill="#1474C4"/>
</svg>
