<svg width="24" height="24" viewBox="0 0 24 24" fill="none" xmlns="http://www.w3.org/2000/svg">
<path d="M12.0234 24C7.71094 24 3.77344 21.75 1.61719 18C-0.539062 14.2969 -0.539062 9.75 1.61719 6C3.77344 2.29688 7.71094 0 12.0234 0C16.2891 0 20.2266 2.29688 22.3828 6C24.5391 9.75 24.5391 14.2969 22.3828 18C20.2266 21.75 16.2891 24 12.0234 24ZM10.8984 16.125C10.8984 16.7812 11.3672 17.25 12.0234 17.25C12.6328 17.25 13.1484 16.7812 13.1484 16.125V13.125H16.1484C16.7578 13.125 17.2734 12.6562 17.2734 12C17.2734 11.3906 16.7578 10.875 16.1484 10.875H13.1484V7.875C13.1484 7.26562 12.6328 6.75 12.0234 6.75C11.3672 6.75 10.8984 7.26562 10.8984 7.875V10.875H7.89844C7.24219 10.875 6.77344 11.3906 6.77344 12C6.77344 12.6562 7.24219 13.125 7.89844 13.125H10.8984V16.125Z" fill="#1474C4"/>
</svg>
