<svg width="33" height="43" viewBox="0 0 33 43" fill="none" xmlns="http://www.w3.org/2000/svg">
<path d="M26.8237 3.69165L20.4643 18.4573H29.7143C30.788 18.4573 31.779 19.1135 32.192 20.0979C32.5223 21.1643 32.2746 22.3127 31.4487 23.051L10.3058 41.426C9.31474 42.1643 7.99331 42.2463 7.00224 41.5081C6.01117 40.8518 5.59822 39.5393 6.09376 38.3909L12.4531 23.6252H3.28572C2.12947 23.6252 1.1384 22.969 0.808043 21.9846C0.395097 20.9182 0.642865 19.7698 1.46876 19.0315L22.6116 0.656491C23.6027 -0.0817906 24.9241 -0.163822 25.9152 0.574459C26.9063 1.23071 27.3192 2.54321 26.8237 3.69165Z" fill="#718095"/>
</svg>
