<svg width="233" height="33" viewBox="0 0 233 33" fill="none" xmlns="http://www.w3.org/2000/svg">
<g clip-path="url(#clip0_1461_2558)">
<path d="M88.7592 27.9963C88.2847 27.9975 87.8112 27.9494 87.3466 27.8527C86.3461 27.6459 85.4001 27.2319 84.5693 26.6373C83.7386 26.0427 83.0416 25.2807 82.5232 24.4004L82.4967 24.3513C82.2395 23.864 82.1771 23.297 82.3223 22.7654C82.4675 22.2338 82.8094 21.7772 83.2786 21.4882C83.6036 21.2927 83.9758 21.1896 84.3551 21.1899C84.7329 21.1904 85.1038 21.2915 85.4297 21.4826C85.7556 21.6738 86.0248 21.9482 86.2097 22.2777L86.2814 22.3985L86.5081 22.7045L86.8102 23.0104C87.2032 23.3504 87.6786 23.5809 88.1889 23.679C88.6015 23.7588 89.0263 23.7517 89.4361 23.658C89.8458 23.5644 90.2315 23.3863 90.5685 23.1351C90.9167 22.8874 91.2054 22.5654 91.4138 22.1924C91.6222 21.8193 91.745 21.4047 91.7734 20.9783C91.8084 20.5563 91.7526 20.1317 91.61 19.733C91.4673 19.3343 91.241 18.9707 90.9462 18.6667C90.9462 18.6667 83.9812 11.4901 83.8301 11.2899L83.4863 10.78C82.6714 9.50814 82.3033 8.00109 82.4401 6.49674C82.5146 5.45436 82.8232 4.44218 83.3428 3.53546L83.645 3.00666C84.1947 2.22042 84.9136 1.56734 85.7489 1.09542L86.0926 0.849909C87.6993 -0.033301 89.5884 -0.251113 91.354 0.243257C93.1196 0.737628 94.6209 1.90474 95.5354 3.49391C95.6779 3.73374 95.7708 3.99978 95.8084 4.2762C95.846 4.55262 95.8277 4.83378 95.7545 5.10298C95.682 5.37704 95.5554 5.63384 95.3823 5.85827C95.2091 6.08271 94.9927 6.27025 94.746 6.40987C94.4317 6.59632 94.0728 6.69421 93.7073 6.69316C93.3315 6.69213 92.9628 6.59119 92.6389 6.4007C92.315 6.21021 92.0476 5.93701 91.8641 5.60912C91.6648 5.27002 91.3957 4.97714 91.0747 4.74988C90.7536 4.52262 90.388 4.36617 90.0019 4.29089C89.6094 4.21446 89.2054 4.22031 88.8153 4.30808C88.4252 4.39585 88.0575 4.56363 87.7356 4.80081C87.4263 5.04187 87.172 5.34614 86.9896 5.69331C86.8072 6.04047 86.701 6.42255 86.678 6.81403C86.6453 7.207 86.6957 7.60245 86.8258 7.97468C86.956 8.34691 87.163 8.68759 87.4335 8.97455L93.9793 15.7243C94.9666 16.7487 95.6304 18.0412 95.8879 19.4404C96.1455 20.8397 95.9853 22.2838 95.4273 23.5926C94.8694 24.9014 93.9385 26.017 92.7506 26.8001C91.5628 27.5832 90.1707 27.9992 88.7479 27.9963H88.7592Z" fill="#003D8F"/>
<path d="M68.0529 27.9924C66.1873 27.9904 64.3986 27.2484 63.0794 25.9292C61.7601 24.61 61.0181 22.8213 61.0161 20.9556V7.03683C61.0161 6.11274 61.1981 5.1977 61.5518 4.34395C61.9054 3.4902 62.4237 2.71447 63.0772 2.06104C63.7306 1.40761 64.5063 0.88928 65.3601 0.535647C66.2138 0.182013 67.1289 0 68.0529 0C68.977 0 69.8921 0.182013 70.7458 0.535647C71.5996 0.88928 72.3753 1.40761 73.0287 2.06104C73.6822 2.71447 74.2005 3.4902 74.5541 4.34395C74.9078 5.1977 75.0898 6.11274 75.0898 7.03683V20.9556C75.0878 22.8213 74.3458 24.61 73.0265 25.9292C71.7073 27.2484 69.9186 27.9904 68.0529 27.9924ZM68.0529 4.24929C67.3139 4.25029 66.6055 4.5443 66.083 5.06685C65.5604 5.58939 65.2664 6.29783 65.2654 7.03683V20.9556C65.2614 21.3228 65.3307 21.6871 65.4694 22.0271C65.608 22.3672 65.8132 22.6761 66.0728 22.9357C66.3325 23.1954 66.6414 23.4006 66.9814 23.5392C67.3215 23.6779 67.6858 23.7472 68.0529 23.7432C68.7919 23.7422 69.5004 23.4481 70.0229 22.9256C70.5455 22.4031 70.8395 21.6946 70.8405 20.9556V7.03683C70.8307 6.30057 70.5339 5.59722 70.0132 5.07656C69.4926 4.5559 68.7892 4.25907 68.0529 4.24929Z" fill="#003D8F"/>
<path d="M40.7216 14.357V25.8887C40.7216 26.4516 40.4979 26.9916 40.0998 27.3897C39.7018 27.7878 39.1618 28.0114 38.5988 28.0114C38.0358 28.0114 37.4959 27.7878 37.0978 27.3897C36.6997 26.9916 36.4761 26.4516 36.4761 25.8887V5.54115L40.7216 14.357ZM52.1852 22.4628V2.12284C52.1621 1.57484 51.9282 1.05697 51.5323 0.677399C51.1363 0.297825 50.6091 0.0859039 50.0606 0.0859039C49.5121 0.0859039 48.9848 0.297825 48.5889 0.677399C48.193 1.05697 47.9591 1.57484 47.9359 2.12284V13.6431L52.1852 22.4628ZM40.5214 1.20499V1.16344C40.33 0.821197 40.0512 0.535934 39.7134 0.336836C39.3756 0.137737 38.9909 0.0319491 38.5988 0.0302954C38.4553 0.0296134 38.3122 0.0448144 38.172 0.0756211C37.6945 0.168605 37.2649 0.426495 36.9584 0.804185C36.6518 1.18187 36.4878 1.65532 36.495 2.14172V2.62897L48.1512 26.8292C48.334 27.1736 48.6054 27.463 48.9374 27.6675C49.2694 27.872 49.65 27.9842 50.0398 27.9925C50.2041 27.9929 50.3678 27.9726 50.5271 27.9321C50.9962 27.834 51.4172 27.5772 51.7193 27.205C52.0213 26.8328 52.1858 26.368 52.1852 25.8887V25.409C52.1852 25.409 40.8349 1.85088 40.5214 1.20499Z" fill="#003D8F"/>
<path d="M20.5478 27.9924C18.6818 27.9914 16.8926 27.2497 15.5731 25.9303C14.2537 24.6109 13.512 22.8216 13.511 20.9556V7.03683C13.511 5.17054 14.2524 3.3807 15.572 2.06104C16.8917 0.741378 18.6815 0 20.5478 0C22.4141 0 24.2039 0.741378 25.5236 2.06104C26.8433 3.3807 27.5846 5.17054 27.5846 7.03683V20.9556C27.5836 22.8216 26.8419 24.6109 25.5225 25.9303C24.2031 27.2497 22.4138 27.9914 20.5478 27.9924ZM20.5478 4.24929C20.1816 4.24879 19.8189 4.32056 19.4805 4.46047C19.1421 4.60038 18.8346 4.80569 18.5756 5.06463C18.3167 5.32358 18.1114 5.63107 17.9715 5.9695C17.8315 6.30792 17.7598 6.67062 17.7603 7.03683V20.9556C17.7603 21.6949 18.054 22.4039 18.5767 22.9267C19.0995 23.4495 19.8085 23.7432 20.5478 23.7432C21.2871 23.7432 21.9961 23.4495 22.5189 22.9267C23.0417 22.4039 23.3354 21.6949 23.3354 20.9556V7.03683C23.3256 6.30057 23.0287 5.59722 22.5081 5.07656C21.9874 4.5559 21.2841 4.25907 20.5478 4.24929Z" fill="#003D8F"/>
<path d="M2.3079 27.9813C2.00217 27.9828 1.6992 27.9233 1.41676 27.8062C1.13433 27.6891 0.878122 27.5168 0.663164 27.2994C0.448206 27.082 0.278828 26.8238 0.164961 26.5401C0.0510952 26.2563 -0.00496558 25.9527 6.70106e-05 25.647V2.27776C0.0109916 1.67029 0.261026 1.09163 0.695913 0.66735C1.1308 0.24307 1.71546 0.00739745 2.32301 0.0114732C2.83178 0.00402855 3.32825 0.168009 3.73249 0.477015C4.13673 0.786021 4.42523 1.22207 4.55153 1.71497C4.5671 1.76837 4.57971 1.82259 4.5893 1.87738V1.97937C4.61092 2.10408 4.62104 2.23052 4.61952 2.35708C4.61952 2.35708 4.61952 25.3977 4.61952 25.6621C4.62152 25.9666 4.56315 26.2684 4.44778 26.5502C4.33241 26.832 4.16233 27.0881 3.94738 27.3038C3.73243 27.5194 3.47686 27.6903 3.19546 27.8066C2.91405 27.9229 2.61239 27.9823 2.3079 27.9813Z" fill="#003D8F"/>
</g>
<path d="M112 27.884V12.484H121.988V14.882H114.541V18.732H119.106V21.13H114.541V25.464H122.45V27.884H112Z" fill="#003D8F"/>
<path d="M128.573 28.148C127.341 28.148 126.373 27.8143 125.669 27.147C124.965 26.4797 124.613 25.574 124.613 24.43C124.613 23.682 124.793 23.033 125.152 22.483C125.512 21.9257 126.018 21.4967 126.67 21.196C127.323 20.888 128.086 20.734 128.958 20.734C129.472 20.734 129.959 20.7853 130.421 20.888C130.891 20.9833 131.309 21.13 131.675 21.328V20.602C131.675 19.8833 131.492 19.3517 131.125 19.007C130.759 18.655 130.205 18.479 129.464 18.479C128.922 18.479 128.361 18.578 127.781 18.776C127.202 18.974 126.634 19.26 126.076 19.634L125.339 17.665C125.955 17.2543 126.648 16.939 127.418 16.719C128.188 16.4917 128.962 16.378 129.739 16.378C131.184 16.378 132.266 16.73 132.984 17.434C133.71 18.1307 134.073 19.1793 134.073 20.58V27.884H131.675V26.938C131.279 27.3267 130.814 27.6273 130.278 27.84C129.743 28.0453 129.175 28.148 128.573 28.148ZM129.079 26.047C129.556 26.047 130.018 25.9443 130.465 25.739C130.92 25.5337 131.323 25.2403 131.675 24.859V23.33C131.345 23.1467 130.971 23.0073 130.553 22.912C130.143 22.8093 129.739 22.758 129.343 22.758C128.61 22.758 128.034 22.9083 127.616 23.209C127.198 23.5023 126.989 23.9093 126.989 24.43C126.989 24.9287 127.173 25.3247 127.539 25.618C127.906 25.904 128.419 26.047 129.079 26.047Z" fill="#003D8F"/>
<path d="M140.846 28.148C140.003 28.148 139.193 27.9683 138.415 27.609C137.638 27.2423 137.015 26.7547 136.545 26.146L138.195 24.738C138.584 25.1413 139.02 25.4603 139.504 25.695C139.988 25.9297 140.461 26.047 140.923 26.047C141.51 26.047 141.965 25.9443 142.287 25.739C142.61 25.5263 142.771 25.2293 142.771 24.848C142.771 24.6133 142.698 24.4007 142.551 24.21C142.405 24.012 142.148 23.8177 141.781 23.627C141.415 23.4363 140.909 23.22 140.263 22.978C139.002 22.516 138.107 22.0173 137.579 21.482C137.051 20.9393 136.787 20.261 136.787 19.447C136.787 18.5303 137.154 17.7897 137.887 17.225C138.621 16.6603 139.574 16.378 140.747 16.378C141.547 16.378 142.284 16.532 142.958 16.84C143.64 17.1407 144.227 17.577 144.718 18.149L143.079 19.502C142.412 18.82 141.62 18.479 140.703 18.479C140.212 18.479 139.82 18.5743 139.526 18.765C139.233 18.9483 139.086 19.194 139.086 19.502C139.086 19.81 139.255 20.085 139.592 20.327C139.937 20.5617 140.568 20.8367 141.484 21.152C142.32 21.4307 143.002 21.7423 143.53 22.087C144.066 22.4317 144.454 22.8277 144.696 23.275C144.946 23.7223 145.07 24.2393 145.07 24.826C145.07 25.86 144.693 26.674 143.937 27.268C143.189 27.8547 142.159 28.148 140.846 28.148Z" fill="#003D8F"/>
<path d="M148.885 32.152L150.59 27.664L146.399 16.642H148.918L151.481 23.572C151.554 23.748 151.62 23.924 151.679 24.1C151.737 24.276 151.789 24.4593 151.833 24.65C151.891 24.4593 151.95 24.276 152.009 24.1C152.067 23.924 152.126 23.748 152.185 23.572L154.77 16.642H157.311L151.415 32.152H148.885Z" fill="#003D8F"/>
<path d="M162.846 28.148C162.003 28.148 161.193 27.9683 160.415 27.609C159.638 27.2423 159.015 26.7547 158.545 26.146L160.195 24.738C160.584 25.1413 161.02 25.4603 161.504 25.695C161.988 25.9297 162.461 26.047 162.923 26.047C163.51 26.047 163.965 25.9443 164.287 25.739C164.61 25.5263 164.771 25.2293 164.771 24.848C164.771 24.6133 164.698 24.4007 164.551 24.21C164.405 24.012 164.148 23.8177 163.781 23.627C163.415 23.4363 162.909 23.22 162.263 22.978C161.002 22.516 160.107 22.0173 159.579 21.482C159.051 20.9393 158.787 20.261 158.787 19.447C158.787 18.5303 159.154 17.7897 159.887 17.225C160.621 16.6603 161.574 16.378 162.747 16.378C163.547 16.378 164.284 16.532 164.958 16.84C165.64 17.1407 166.227 17.577 166.718 18.149L165.079 19.502C164.412 18.82 163.62 18.479 162.703 18.479C162.212 18.479 161.82 18.5743 161.526 18.765C161.233 18.9483 161.086 19.194 161.086 19.502C161.086 19.81 161.255 20.085 161.592 20.327C161.937 20.5617 162.568 20.8367 163.484 21.152C164.32 21.4307 165.002 21.7423 165.53 22.087C166.066 22.4317 166.454 22.8277 166.696 23.275C166.946 23.7223 167.07 24.2393 167.07 24.826C167.07 25.86 166.693 26.674 165.937 27.268C165.189 27.8547 164.159 28.148 162.846 28.148Z" fill="#003D8F"/>
<path d="M172.893 28.148C172.043 28.148 171.401 27.906 170.968 27.422C170.536 26.938 170.319 26.2303 170.319 25.299V18.809H168.614V16.642H170.319V13.177L172.783 12V16.642H175.401V18.809H172.783V24.76C172.783 25.1633 172.86 25.464 173.014 25.662C173.176 25.8527 173.421 25.948 173.751 25.948C174.287 25.948 174.87 25.772 175.5 25.42L175.225 27.642C174.881 27.8107 174.518 27.9353 174.136 28.016C173.755 28.104 173.341 28.148 172.893 28.148Z" fill="#003D8F"/>
<path d="M182.504 28.148C180.935 28.148 179.699 27.6237 178.797 26.575C177.895 25.5263 177.444 24.0927 177.444 22.274C177.444 21.064 177.65 20.019 178.06 19.139C178.471 18.259 179.054 17.5807 179.809 17.104C180.572 16.62 181.47 16.378 182.504 16.378C183.546 16.378 184.444 16.6163 185.199 17.093C185.955 17.5697 186.538 18.248 186.948 19.128C187.359 20.008 187.564 21.053 187.564 22.263C187.564 23.473 187.359 24.518 186.948 25.398C186.538 26.278 185.955 26.9563 185.199 27.433C184.444 27.9097 183.546 28.148 182.504 28.148ZM182.504 25.805C183.318 25.805 183.953 25.4933 184.407 24.87C184.862 24.2467 185.089 23.3777 185.089 22.263C185.089 21.141 184.858 20.2683 184.396 19.645C183.942 19.0217 183.311 18.71 182.504 18.71C181.698 18.71 181.063 19.0253 180.601 19.656C180.147 20.2793 179.919 21.152 179.919 22.274C179.919 23.3813 180.147 24.2467 180.601 24.87C181.063 25.4933 181.698 25.805 182.504 25.805Z" fill="#003D8F"/>
<path d="M190.285 27.884V16.642H192.749V17.94C192.969 17.456 193.299 17.0747 193.739 16.796C194.186 16.5173 194.678 16.378 195.213 16.378C195.968 16.378 196.606 16.6237 197.127 17.115L196.786 19.392C196.507 19.172 196.229 19.0143 195.95 18.919C195.671 18.8237 195.363 18.776 195.026 18.776C194.557 18.776 194.153 18.8933 193.816 19.128C193.479 19.3627 193.215 19.6963 193.024 20.129C192.841 20.5617 192.749 21.075 192.749 21.669V27.884H190.285Z" fill="#003D8F"/>
<path d="M202.243 28.148C201.011 28.148 200.043 27.8143 199.339 27.147C198.635 26.4797 198.283 25.574 198.283 24.43C198.283 23.682 198.463 23.033 198.822 22.483C199.181 21.9257 199.687 21.4967 200.34 21.196C200.993 20.888 201.755 20.734 202.628 20.734C203.141 20.734 203.629 20.7853 204.091 20.888C204.56 20.9833 204.978 21.13 205.345 21.328V20.602C205.345 19.8833 205.162 19.3517 204.795 19.007C204.428 18.655 203.875 18.479 203.134 18.479C202.591 18.479 202.03 18.578 201.451 18.776C200.872 18.974 200.303 19.26 199.746 19.634L199.009 17.665C199.625 17.2543 200.318 16.939 201.088 16.719C201.858 16.4917 202.632 16.378 203.409 16.378C204.854 16.378 205.935 16.73 206.654 17.434C207.38 18.1307 207.743 19.1793 207.743 20.58V27.884H205.345V26.938C204.949 27.3267 204.483 27.6273 203.948 27.84C203.413 28.0453 202.844 28.148 202.243 28.148ZM202.749 26.047C203.226 26.047 203.688 25.9443 204.135 25.739C204.59 25.5337 204.993 25.2403 205.345 24.859V23.33C205.015 23.1467 204.641 23.0073 204.223 22.912C203.812 22.8093 203.409 22.758 203.013 22.758C202.28 22.758 201.704 22.9083 201.286 23.209C200.868 23.5023 200.659 23.9093 200.659 24.43C200.659 24.9287 200.842 25.3247 201.209 25.618C201.576 25.904 202.089 26.047 202.749 26.047Z" fill="#003D8F"/>
<path d="M214.941 32.57L213.621 30.535C214.67 30.469 215.495 30.3443 216.096 30.161C216.705 29.9777 217.134 29.721 217.383 29.391C217.64 29.0683 217.768 28.6467 217.768 28.126V27.07C217.167 27.7887 216.309 28.148 215.194 28.148C214.234 28.148 213.405 27.9097 212.708 27.433C212.012 26.949 211.473 26.267 211.091 25.387C210.717 24.507 210.53 23.462 210.53 22.252C210.53 21.064 210.725 20.03 211.113 19.15C211.502 18.27 212.048 17.588 212.752 17.104C213.456 16.62 214.285 16.378 215.238 16.378C215.759 16.378 216.236 16.466 216.668 16.642C217.108 16.8107 217.475 17.0527 217.768 17.368V16.642H220.243V27.114C220.243 28.038 220.144 28.83 219.946 29.49C219.756 30.1573 219.448 30.7037 219.022 31.129C218.604 31.5617 218.058 31.8917 217.383 32.119C216.709 32.3463 215.895 32.4967 214.941 32.57ZM215.623 25.805C216.041 25.805 216.441 25.6987 216.822 25.486C217.204 25.266 217.519 24.9727 217.768 24.606V19.876C217.548 19.5313 217.24 19.2527 216.844 19.04C216.448 18.82 216.052 18.71 215.656 18.71C214.798 18.71 214.142 19.0143 213.687 19.623C213.233 20.2243 213.005 21.1007 213.005 22.252C213.005 22.9927 213.112 23.627 213.324 24.155C213.537 24.683 213.838 25.09 214.226 25.376C214.615 25.662 215.081 25.805 215.623 25.805Z" fill="#003D8F"/>
<path d="M228.085 28.148C227.022 28.148 226.105 27.9023 225.335 27.411C224.565 26.9197 223.975 26.234 223.564 25.354C223.154 24.4667 222.948 23.4327 222.948 22.252C222.948 21.0273 223.161 19.9787 223.586 19.106C224.012 18.226 224.609 17.5513 225.379 17.082C226.149 16.6127 227.051 16.378 228.085 16.378C228.973 16.378 229.779 16.5687 230.505 16.95C231.239 17.3313 231.822 17.918 232.254 18.71C232.687 19.4947 232.903 20.4957 232.903 21.713C232.903 21.9037 232.9 22.131 232.892 22.395C232.885 22.6517 232.863 22.912 232.826 23.176H225.401C225.445 23.748 225.581 24.2467 225.808 24.672C226.043 25.0973 226.355 25.431 226.743 25.673C227.132 25.9077 227.59 26.025 228.118 26.025C228.632 26.025 229.086 25.9407 229.482 25.772C229.878 25.596 230.256 25.3173 230.615 24.936L232.045 26.443C231.583 26.949 231.019 27.3597 230.351 27.675C229.691 27.9903 228.936 28.148 228.085 28.148ZM225.412 21.185H230.483C230.461 20.6497 230.351 20.1803 230.153 19.777C229.963 19.3737 229.691 19.062 229.339 18.842C228.987 18.6147 228.558 18.501 228.052 18.501C227.348 18.501 226.747 18.721 226.248 19.161C225.757 19.601 225.478 20.2757 225.412 21.185Z" fill="#003D8F"/>
<defs>
<clipPath id="clip0_1461_2558">
<rect width="96.034" height="28" fill="white"/>
</clipPath>
</defs>
</svg>
