<svg width="24" height="24" viewBox="0 0 24 24" fill="none" xmlns="http://www.w3.org/2000/svg">
<circle cx="12" cy="12" r="12" fill="#F50C00"/>
<path d="M12 6.5C9.71875 6.5 7.75 7.90625 6.9375 9.875C6.75 10.25 6.3125 10.4062 5.9375 10.25C5.5625 10.0938 5.375 9.65625 5.53125 9.28125C6.59375 6.78125 9.09375 5 12 5C13.625 5 15.1875 5.65625 16.3438 6.8125L18 8.46875V6.75C18 6.34375 18.3125 6 18.75 6C19.1562 6 19.5 6.34375 19.5 6.75V10.25C19.5 10.6875 19.1562 11 18.75 11H15.25C14.8125 11 14.5 10.6875 14.5 10.25C14.5 9.84375 14.8125 9.5 15.25 9.5H16.9375L15.3125 7.875C14.4062 7 13.2188 6.5 12 6.5ZM18.0312 13.7812C18.4062 13.9375 18.5938 14.375 18.4375 14.7812C17.3438 17.25 14.875 19 12 19C10.3438 19 8.78125 18.375 7.625 17.2188L6 15.5625V17.25C6 17.6875 5.65625 18 5.25 18C4.8125 18 4.5 17.6875 4.5 17.25V13.75C4.5 13.3438 4.8125 13 5.25 13H8.75C9.15625 13 9.5 13.3438 9.5 13.75C9.5 14.1875 9.15625 14.5 8.75 14.5H7.03125L8.6875 16.1562C9.5625 17.0312 10.75 17.5 12 17.5C14.25 17.5 16.2188 16.1562 17.0312 14.1875C17.2188 13.7812 17.6562 13.625 18.0312 13.7812ZM12 8C12.4062 8 12.75 8.34375 12.75 8.75V12.25C12.75 12.6875 12.4062 13 12 13C11.5625 13 11.25 12.6875 11.25 12.25V8.75C11.25 8.34375 11.5625 8 12 8ZM11 15C11 14.4688 11.4375 14 12 14C12.5312 14 13 14.4688 13 15C13 15.5625 12.5312 16 12 16C11.4375 16 11 15.5625 11 15Z" fill="white"/>
</svg>
