<svg width="24" height="24" viewBox="0 0 24 24" fill="none" xmlns="http://www.w3.org/2000/svg">
<circle cx="12" cy="12" r="10" fill="white"/>
<path d="M12.0234 24C7.71094 24 3.77344 21.75 1.61719 18C-0.539062 14.2969 -0.539062 9.75 1.61719 6C3.77344 2.29688 7.71094 0 12.0234 0C16.2891 0 20.2266 2.29688 22.3828 6C24.5391 9.75 24.5391 14.2969 22.3828 18C20.2266 21.75 16.2891 24 12.0234 24ZM8.22656 8.20312C7.75781 8.67188 7.75781 9.375 8.22656 9.79688L10.4297 12L8.22656 14.2031C7.75781 14.6719 7.75781 15.375 8.22656 15.7969C8.64844 16.2656 9.35156 16.2656 9.77344 15.7969L11.9766 13.5938L14.1797 15.7969C14.6484 16.2656 15.3516 16.2656 15.7734 15.7969C16.2422 15.375 16.2422 14.6719 15.7734 14.2031L13.5703 12L15.7734 9.79688C16.2422 9.375 16.2422 8.67188 15.7734 8.20312C15.3516 7.78125 14.6484 7.78125 14.1797 8.20312L11.9766 10.4062L9.77344 8.20312C9.35156 7.78125 8.64844 7.78125 8.22656 8.20312Z" fill="#F50C00"/>
</svg>
