<svg width="24" height="24" viewBox="0 0 24 24" fill="none" xmlns="http://www.w3.org/2000/svg">
<g clip-path="url(#clip0_1877_3568)">
<circle cx="12" cy="12" r="12" fill="white"/>
<path d="M12.0078 24C7.69531 24 3.75781 21.75 1.60156 18C-0.554688 14.2969 -0.554688 9.75 1.60156 6C3.75781 2.29688 7.69531 0 12.0078 0C16.2734 0 20.2109 2.29688 22.3672 6C24.5234 9.75 24.5234 14.2969 22.3672 18C20.2109 21.75 16.2734 24 12.0078 24ZM17.3047 9.79688H17.2578C17.7266 9.375 17.7266 8.67188 17.2578 8.20312C16.8359 7.78125 16.1328 7.78125 15.7109 8.20312L10.5078 13.4531L8.30469 11.25C7.83594 10.7812 7.13281 10.7812 6.71094 11.25C6.24219 11.6719 6.24219 12.375 6.71094 12.7969L9.71094 15.7969C10.1328 16.2656 10.8359 16.2656 11.3047 15.7969L17.3047 9.79688Z" fill="#0C8A44"/>
</g>
<defs>
<clipPath id="clip0_1877_3568">
<rect width="24" height="24" fill="white"/>
</clipPath>
</defs>
</svg>
