<svg width="24" height="24" viewBox="0 0 24 24" fill="none" xmlns="http://www.w3.org/2000/svg">
<circle cx="12" cy="12" r="12" fill="white"/>
<path d="M12.0234 24C7.71094 24 3.77344 21.75 1.61719 18C-0.539062 14.2969 -0.539062 9.75 1.61719 6C3.77344 2.29688 7.71094 0 12.0234 0C16.2891 0 20.2266 2.29688 22.3828 6C24.5391 9.75 24.5391 14.2969 22.3828 18C20.2266 21.75 16.2891 24 12.0234 24ZM12.0234 6C11.3672 6 10.8984 6.51562 10.8984 7.125V12.375C10.8984 13.0312 11.3672 13.5 12.0234 13.5C12.6328 13.5 13.1484 13.0312 13.1484 12.375V7.125C13.1484 6.51562 12.6328 6 12.0234 6ZM10.5234 16.5C10.5234 17.3438 11.1797 18 12.0234 18C12.8203 18 13.5234 17.3438 13.5234 16.5C13.5234 15.7031 12.8203 15 12.0234 15C11.1797 15 10.5234 15.7031 10.5234 16.5Z" fill="#C36B00"/>
</svg>
