<svg width="24" height="24" viewBox="0 0 24 24" fill="none" xmlns="http://www.w3.org/2000/svg">
<rect x="7" y="9" width="8" height="9" fill="white"/>
<path d="M5.0625 20.125C2.25 20.125 0 17.875 0 15.0625C0 12.8828 1.40625 10.9844 3.375 10.3164C3.375 10.2109 3.375 10.1055 3.375 10C3.375 6.90625 5.87109 4.375 9 4.375C11.0742 4.375 12.9023 5.53516 13.8516 7.22266C14.3789 6.83594 15.0469 6.625 15.75 6.625C17.6133 6.625 19.125 8.13672 19.125 10C19.125 10.457 19.0195 10.8438 18.8789 11.2305C20.9531 11.6523 22.5 13.4805 22.5 15.625C22.5 18.1211 20.4609 20.125 18 20.125H5.0625ZM7.83984 12.4961C7.48828 12.8477 7.48828 13.375 7.83984 13.6914C8.15625 14.043 8.68359 14.043 9 13.6914L10.3711 12.3203V17.0312C10.3711 17.5234 10.7578 17.875 11.2148 17.875C11.707 17.875 12.0586 17.5234 12.0586 17.0312V12.3203L13.4297 13.6914C13.7812 14.043 14.3086 14.043 14.625 13.6914C14.9766 13.375 14.9766 12.8477 14.625 12.4961L11.8125 9.68359C11.4961 9.36719 10.9688 9.36719 10.6172 9.68359L7.80469 12.4961H7.83984Z" fill="#718095"/>
</svg>
