<svg width="38" height="38" viewBox="0 0 38 38" fill="none" xmlns="http://www.w3.org/2000/svg">
<path d="M3.16675 12.6667V9.89583C3.16675 7.05387 5.47062 4.75 8.31258 4.75H12.8705C13.8153 4.75 14.7215 5.12533 15.3896 5.79343L17.8126 8.21646L13.7102 12.3189C13.4875 12.5416 13.1854 12.6667 12.8705 12.6667H3.16675ZM3.16675 15.0417V28.1042C3.16675 30.9461 5.47062 33.25 8.31258 33.25H19.0346C18.0105 31.6504 17.4167 29.7487 17.4167 27.7083C17.4167 22.0244 22.0245 17.4167 27.7084 17.4167C30.4737 17.4167 32.9842 18.5073 34.8334 20.2818V13.8542C34.8334 11.0122 32.5295 8.70833 29.6876 8.70833H20.6795L15.3896 13.9982C14.7215 14.6663 13.8153 15.0417 12.8705 15.0417H3.16675ZM19.0001 27.7083C19.0001 32.5178 22.8989 36.4167 27.7084 36.4167C32.5179 36.4167 36.4167 32.5178 36.4167 27.7083C36.4167 22.8989 32.5179 19 27.7084 19C22.8989 19 19.0001 22.8989 19.0001 27.7083ZM32.4584 22.1667C32.8956 22.1667 33.2501 22.5211 33.2501 22.9583V26.125C33.2501 26.5622 32.8956 26.9167 32.4584 26.9167H29.2917C28.8545 26.9167 28.5001 26.5622 28.5001 26.125C28.5001 25.6878 28.8545 25.3333 29.2917 25.3333H30.8755C30.1525 24.3707 29.0026 23.75 27.7084 23.75C26.3888 23.75 25.2199 24.395 24.4994 25.3903C24.243 25.7445 23.7481 25.8238 23.3939 25.5674C23.0397 25.3111 22.9604 24.8161 23.2168 24.4619C24.2223 23.0729 25.8595 22.1667 27.7084 22.1667C29.2597 22.1667 30.6615 22.8043 31.6667 23.8301V22.9583C31.6667 22.5211 32.0212 22.1667 32.4584 22.1667ZM23.7501 31.5865V32.4583C23.7501 32.8956 23.3956 33.25 22.9584 33.25C22.5212 33.25 22.1667 32.8956 22.1667 32.4583V29.2917C22.1667 28.8544 22.5212 28.5 22.9584 28.5H26.1251C26.5623 28.5 26.9167 28.8544 26.9167 29.2917C26.9167 29.7289 26.5623 30.0833 26.1251 30.0833H24.5414C25.2644 31.0459 26.4143 31.6667 27.7084 31.6667C28.9218 31.6667 30.0071 31.1217 30.7344 30.2603C31.0165 29.9263 31.516 29.8841 31.85 30.1662C32.1841 30.4483 32.2262 30.9478 31.9442 31.2818C30.9289 32.4842 29.4077 33.25 27.7084 33.25C26.1572 33.25 24.7553 32.6124 23.7501 31.5865Z" fill="#0F6CBD"/>
</svg>
